<svg id="scene4" width="100%" height="100%" viewBox="0 0 1280 1024" version="1.1" xmlns="http://www.w3.org/2000/svg" xmlns:xlink="http://www.w3.org/1999/xlink" xml:space="preserve" xmlns:serif="http://www.serif.com/" style="fill-rule:evenodd;clip-rule:evenodd;stroke-linecap:round;stroke-linejoin:round;stroke-miterlimit:10;">
  <g transform="matrix(1,0,0,1,0,-52.442)">
      <g class="bg">
          <rect class="bg1" serif:class="bg" x="0" y="52.442" width="1280" height="971.558" style="fill:rgb(234,242,244);"/>
      </g>
  </g>
  <g transform="matrix(0,1,1,0,800.298,-140.159)">
      <g class="ground">
          <path class="ground1" serif:class="ground" d="M476.859,-803.141L596.768,-803.141L804.252,476.859L475.748,476.859L476.859,-803.141Z" style="fill:rgb(131,206,226);fill-rule:nonzero;"/>
      </g>
  </g>
  <g class="clouds" transform="matrix(1,0,0,1,32.2251,-80.626)">
      <g class="cloud3 cloud" transform="matrix(0.794628,0,0,0.794628,746.998,194.992)">
          <path d="M0,45.402L120.765,45.402C120.765,45.402 115.976,26.577 101.76,35.989C93.081,0 42.177,7.464 41.052,33.354C34.391,15.503 2.151,19.933 0,45.402" style="fill:rgb(195,229,244);fill-rule:nonzero;"/>
      </g>
      <g class="cloud2 cloud" transform="matrix(0.794628,0,0,0.794628,429.628,186.228)">
          <path d="M0,34.905L92.845,34.905C92.845,34.905 89.164,20.432 78.234,27.669C71.562,0 32.426,5.738 31.561,25.642C26.44,11.919 1.655,15.324 0,34.905" style="fill:rgb(195,229,244);fill-rule:nonzero;"/>
      </g>
      <g class="cloud1 cloud" transform="matrix(0.794628,0,0,0.794628,330.625,135.371)">
          <path d="M0,52.906L140.726,52.906C140.726,52.906 135.146,30.969 118.58,41.938C108.466,0 49.148,8.697 47.837,38.866C40.075,18.065 2.508,23.227 0,52.906" style="fill:rgb(195,229,244);fill-rule:nonzero;"/>
      </g>
  </g>

  <g class="cars" transform="matrix(0.794628,0,0,0.794628,125.979,-22.0014)">
      <g class="car1 car" transform="matrix(0.434785,-0.0427363,0.0427363,0.434785,506.617,248.616)">
          <g>
              <path d="M331.177,442.754C331.177,442.754 316.661,467.381 313.945,491.391L314.643,491.457C314.643,491.457 317.893,475.642 332.501,477.943C342.297,479.486 346.445,487.858 344.373,497.448L394.109,502.104C394.109,502.104 393.561,485.38 408.824,487.044C423.346,489.108 419.869,504.515 419.869,504.515L423.637,504.398C423.637,504.398 423.669,503.227 423.324,502.725C423.324,502.725 425.516,487.667 419.856,480.406C414.196,473.145 409.921,472.823 405.946,468.46C401.971,464.095 385.246,447.11 373.221,445.124C361.197,443.138 340.536,441.439 331.177,442.754" style="fill:rgb(82,193,233);fill-rule:nonzero;"/>
              <path d="M317.987,491.691C318.589,485.263 324.287,480.54 330.715,481.142C337.143,481.744 341.866,487.442 341.264,493.87C340.663,500.298 334.964,505.021 328.536,504.42C322.108,503.817 317.385,498.119 317.987,491.691" style="fill:rgb(18,111,183);fill-rule:nonzero;"/>
              <path d="M395.423,498.94C396.025,492.512 401.723,487.789 408.151,488.391C414.579,488.992 419.302,494.69 418.7,501.119C418.099,507.546 412.4,512.27 405.972,511.668C399.545,511.066 394.821,505.368 395.423,498.94" style="fill:rgb(18,111,183);fill-rule:nonzero;"/>
              <path d="M320.159,491.895C320.648,486.667 325.283,482.825 330.511,483.315C335.739,483.804 339.581,488.438 339.091,493.667C338.602,498.895 333.967,502.736 328.739,502.246C323.511,501.758 319.67,497.123 320.159,491.895" style="fill:rgb(195,229,244);fill-rule:nonzero;"/>
              <path d="M397.983,499.179C398.452,494.165 402.897,490.481 407.911,490.95C412.924,491.42 416.608,495.865 416.139,500.879C415.67,505.892 411.225,509.576 406.212,509.107C401.198,508.638 397.514,504.193 397.983,499.179" style="fill:rgb(195,229,244);fill-rule:nonzero;"/>
              <path d="M323.255,458.824L326.514,459.129L333.968,446.381C334.764,444.576 332.695,443.914 330.605,443.758C330.605,443.758 324.795,455.098 323.255,458.824" style="fill:rgb(237,198,0);fill-rule:nonzero;"/>
              <path d="M347.481,459.23C347.481,459.23 348.323,447.725 356.218,447.837C364.112,447.95 370.434,448.15 377.4,452.325C384.367,456.499 393.193,462.802 393.231,468.834C393.236,469.618 393.348,470.098 390.055,469.32C386.762,468.542 348.528,460.58 347.481,459.23" style="fill:white;fill-rule:nonzero;"/>
              <path d="M411.539,472.86C411.403,477.893 416.334,483.529 421.857,484.003C419.701,477.887 411.539,472.86 411.539,472.86" style="fill:rgb(195,229,244);fill-rule:nonzero;"/>
              <path d="M347.081,463.497C347.333,461.643 347.828,461.375 349.514,461.768C351.199,462.161 355.84,462.751 354.514,465.21L347.081,463.497Z" style="fill:rgb(195,229,244);fill-rule:nonzero;"/>
          </g>
      </g>
      <g class="car2 car" serif:class="car" transform="matrix(0.434785,-0.0427363,0.0427363,0.434785,587.617,248.616)">
          <g>
              <path d="M331.177,442.754C331.177,442.754 316.661,467.381 313.945,491.391L314.643,491.457C314.643,491.457 317.893,475.642 332.501,477.943C342.297,479.486 346.445,487.858 344.373,497.448L394.109,502.104C394.109,502.104 393.561,485.38 408.824,487.044C423.346,489.108 419.869,504.515 419.869,504.515L423.637,504.398C423.637,504.398 423.669,503.227 423.324,502.725C423.324,502.725 425.516,487.667 419.856,480.406C414.196,473.145 409.921,472.823 405.946,468.46C401.971,464.095 385.246,447.11 373.221,445.124C361.197,443.138 340.536,441.439 331.177,442.754" style="fill:rgb(82,193,233);fill-rule:nonzero;"/>
              <path d="M317.987,491.691C318.589,485.263 324.287,480.54 330.715,481.142C337.143,481.744 341.866,487.442 341.264,493.87C340.663,500.298 334.964,505.021 328.536,504.42C322.108,503.817 317.385,498.119 317.987,491.691" style="fill:rgb(18,111,183);fill-rule:nonzero;"/>
              <path d="M395.423,498.94C396.025,492.512 401.723,487.789 408.151,488.391C414.579,488.992 419.302,494.69 418.7,501.119C418.099,507.546 412.4,512.27 405.972,511.668C399.545,511.066 394.821,505.368 395.423,498.94" style="fill:rgb(18,111,183);fill-rule:nonzero;"/>
              <path d="M320.159,491.895C320.648,486.667 325.283,482.825 330.511,483.315C335.739,483.804 339.581,488.438 339.091,493.667C338.602,498.895 333.967,502.736 328.739,502.246C323.511,501.758 319.67,497.123 320.159,491.895" style="fill:rgb(195,229,244);fill-rule:nonzero;"/>
              <path d="M397.983,499.179C398.452,494.165 402.897,490.481 407.911,490.95C412.924,491.42 416.608,495.865 416.139,500.879C415.67,505.892 411.225,509.576 406.212,509.107C401.198,508.638 397.514,504.193 397.983,499.179" style="fill:rgb(195,229,244);fill-rule:nonzero;"/>
              <path d="M323.255,458.824L326.514,459.129L333.968,446.381C334.764,444.576 332.695,443.914 330.605,443.758C330.605,443.758 324.795,455.098 323.255,458.824" style="fill:rgb(237,198,0);fill-rule:nonzero;"/>
              <path d="M347.481,459.23C347.481,459.23 348.323,447.725 356.218,447.837C364.112,447.95 370.434,448.15 377.4,452.325C384.367,456.499 393.193,462.802 393.231,468.834C393.236,469.618 393.348,470.098 390.055,469.32C386.762,468.542 348.528,460.58 347.481,459.23" style="fill:white;fill-rule:nonzero;"/>
              <path d="M411.539,472.86C411.403,477.893 416.334,483.529 421.857,484.003C419.701,477.887 411.539,472.86 411.539,472.86" style="fill:rgb(195,229,244);fill-rule:nonzero;"/>
              <path d="M347.081,463.497C347.333,461.643 347.828,461.375 349.514,461.768C351.199,462.161 355.84,462.751 354.514,465.21L347.081,463.497Z" style="fill:rgb(195,229,244);fill-rule:nonzero;"/>
          </g>
      </g>
      <g class="car3 car" serif:class="car" transform="matrix(0.434785,-0.0427363,0.0427363,0.434785,78.3242,248.809)">
          <g>
              <path d="M331.177,442.754C331.177,442.754 316.661,467.381 313.945,491.391L314.643,491.457C314.643,491.457 317.893,475.642 332.501,477.943C342.297,479.486 346.445,487.858 344.373,497.448L394.109,502.104C394.109,502.104 393.561,485.38 408.824,487.044C423.346,489.108 419.869,504.515 419.869,504.515L423.637,504.398C423.637,504.398 423.669,503.227 423.324,502.725C423.324,502.725 425.516,487.667 419.856,480.406C414.196,473.145 409.921,472.823 405.946,468.46C401.971,464.095 385.246,447.11 373.221,445.124C361.197,443.138 340.536,441.439 331.177,442.754" style="fill:rgb(82,193,233);fill-rule:nonzero;"/>
              <path d="M317.987,491.691C318.589,485.263 324.287,480.54 330.715,481.142C337.143,481.744 341.866,487.442 341.264,493.87C340.663,500.298 334.964,505.021 328.536,504.42C322.108,503.817 317.385,498.119 317.987,491.691" style="fill:rgb(18,111,183);fill-rule:nonzero;"/>
              <path d="M395.423,498.94C396.025,492.512 401.723,487.789 408.151,488.391C414.579,488.992 419.302,494.69 418.7,501.119C418.099,507.546 412.4,512.27 405.972,511.668C399.545,511.066 394.821,505.368 395.423,498.94" style="fill:rgb(18,111,183);fill-rule:nonzero;"/>
              <path d="M320.159,491.895C320.648,486.667 325.283,482.825 330.511,483.315C335.739,483.804 339.581,488.438 339.091,493.667C338.602,498.895 333.967,502.736 328.739,502.246C323.511,501.758 319.67,497.123 320.159,491.895" style="fill:rgb(195,229,244);fill-rule:nonzero;"/>
              <path d="M397.983,499.179C398.452,494.165 402.897,490.481 407.911,490.95C412.924,491.42 416.608,495.865 416.139,500.879C415.67,505.892 411.225,509.576 406.212,509.107C401.198,508.638 397.514,504.193 397.983,499.179" style="fill:rgb(195,229,244);fill-rule:nonzero;"/>
              <path d="M323.255,458.824L326.514,459.129L333.968,446.381C334.764,444.576 332.695,443.914 330.605,443.758C330.605,443.758 324.795,455.098 323.255,458.824" style="fill:rgb(237,198,0);fill-rule:nonzero;"/>
              <path d="M347.481,459.23C347.481,459.23 348.323,447.725 356.218,447.837C364.112,447.95 370.434,448.15 377.4,452.325C384.367,456.499 393.193,462.802 393.231,468.834C393.236,469.618 393.348,470.098 390.055,469.32C386.762,468.542 348.528,460.58 347.481,459.23" style="fill:white;fill-rule:nonzero;"/>
              <path d="M411.539,472.86C411.403,477.893 416.334,483.529 421.857,484.003C419.701,477.887 411.539,472.86 411.539,472.86" style="fill:rgb(195,229,244);fill-rule:nonzero;"/>
              <path d="M347.081,463.497C347.333,461.643 347.828,461.375 349.514,461.768C351.199,462.161 355.84,462.751 354.514,465.21L347.081,463.497Z" style="fill:rgb(195,229,244);fill-rule:nonzero;"/>
          </g>
      </g>
      <g class="car4 car" serif:class="car" transform="matrix(0.434785,-0.0427363,0.0427363,0.434785,159.324,248.809)">
          <g>
              <path d="M331.177,442.754C331.177,442.754 316.661,467.381 313.945,491.391L314.643,491.457C314.643,491.457 317.893,475.642 332.501,477.943C342.297,479.486 346.445,487.858 344.373,497.448L394.109,502.104C394.109,502.104 393.561,485.38 408.824,487.044C423.346,489.108 419.869,504.515 419.869,504.515L423.637,504.398C423.637,504.398 423.669,503.227 423.324,502.725C423.324,502.725 425.516,487.667 419.856,480.406C414.196,473.145 409.921,472.823 405.946,468.46C401.971,464.095 385.246,447.11 373.221,445.124C361.197,443.138 340.536,441.439 331.177,442.754" style="fill:rgb(82,193,233);fill-rule:nonzero;"/>
              <path d="M317.987,491.691C318.589,485.263 324.287,480.54 330.715,481.142C337.143,481.744 341.866,487.442 341.264,493.87C340.663,500.298 334.964,505.021 328.536,504.42C322.108,503.817 317.385,498.119 317.987,491.691" style="fill:rgb(18,111,183);fill-rule:nonzero;"/>
              <path d="M395.423,498.94C396.025,492.512 401.723,487.789 408.151,488.391C414.579,488.992 419.302,494.69 418.7,501.119C418.099,507.546 412.4,512.27 405.972,511.668C399.545,511.066 394.821,505.368 395.423,498.94" style="fill:rgb(18,111,183);fill-rule:nonzero;"/>
              <path d="M320.159,491.895C320.648,486.667 325.283,482.825 330.511,483.315C335.739,483.804 339.581,488.438 339.091,493.667C338.602,498.895 333.967,502.736 328.739,502.246C323.511,501.758 319.67,497.123 320.159,491.895" style="fill:rgb(195,229,244);fill-rule:nonzero;"/>
              <path d="M397.983,499.179C398.452,494.165 402.897,490.481 407.911,490.95C412.924,491.42 416.608,495.865 416.139,500.879C415.67,505.892 411.225,509.576 406.212,509.107C401.198,508.638 397.514,504.193 397.983,499.179" style="fill:rgb(195,229,244);fill-rule:nonzero;"/>
              <path d="M323.255,458.824L326.514,459.129L333.968,446.381C334.764,444.576 332.695,443.914 330.605,443.758C330.605,443.758 324.795,455.098 323.255,458.824" style="fill:rgb(237,198,0);fill-rule:nonzero;"/>
              <path d="M347.481,459.23C347.481,459.23 348.323,447.725 356.218,447.837C364.112,447.95 370.434,448.15 377.4,452.325C384.367,456.499 393.193,462.802 393.231,468.834C393.236,469.618 393.348,470.098 390.055,469.32C386.762,468.542 348.528,460.58 347.481,459.23" style="fill:white;fill-rule:nonzero;"/>
              <path d="M411.539,472.86C411.403,477.893 416.334,483.529 421.857,484.003C419.701,477.887 411.539,472.86 411.539,472.86" style="fill:rgb(195,229,244);fill-rule:nonzero;"/>
              <path d="M347.081,463.497C347.333,461.643 347.828,461.375 349.514,461.768C351.199,462.161 355.84,462.751 354.514,465.21L347.081,463.497Z" style="fill:rgb(195,229,244);fill-rule:nonzero;"/>
          </g>
      </g>
  </g>
  <g class="Calque-2" serif:class="Calque 2">
      <g transform="matrix(0.794628,0,0,0.794628,791.156,301.735)">
          <path d="M0,-38.448L-48.356,0L-41.48,0L0,-32.681L45.251,0L45.251,-5.619L0,-38.448Z" style="fill:rgb(237,198,0);fill-rule:nonzero;"/>
      </g>
      <g transform="matrix(-0.632482,0.481041,0.481041,0.632482,768.36,308.174)">
          <path d="M-48.797,-10.568L0.51,-10.568L5.277,-14.193L-47.523,-15.096L-48.797,-10.568Z" style="fill:rgb(18,111,183);fill-rule:nonzero;"/>
      </g>
      <g transform="matrix(0.794628,0,0,0.794628,125.979,-140.737)">
          <rect x="887.002" y="556.829" width="86.287" height="45.922" style="fill:rgb(18,111,183);"/>
      </g>
      <g transform="matrix(0.794628,0,0,0.794628,125.979,-149.319)">
          <rect x="915.505" y="580.643" width="9.095" height="9.094" style="fill:rgb(82,193,233);"/>
      </g>
      <g transform="matrix(0.794628,0,0,0.794628,125.979,-132.221)">
          <rect x="915.505" y="569.884" width="9.095" height="9.095" style="fill:rgb(82,193,233);"/>
      </g>
      <g transform="matrix(0.794628,0,0,0.794628,125.979,-149.319)">
          <rect x="904.304" y="580.643" width="9.094" height="9.094" style="fill:rgb(82,193,233);"/>
      </g>
      <g transform="matrix(0.794628,0,0,0.794628,125.979,-132.221)">
          <rect x="904.304" y="569.884" width="9.094" height="9.095" style="fill:rgb(82,193,233);"/>
      </g>
      <g transform="matrix(-0.632482,0.481041,0.481041,0.632482,872.708,308.174)">
          <path d="M-48.797,-10.568L0.51,-10.568L5.277,-14.193L-47.523,-15.096L-48.797,-10.568Z" style="fill:rgb(18,111,183);fill-rule:nonzero;"/>
      </g>
      <path d="M-6.112,897.22L-6.112,849.092L-4.637,849.092L-4.637,437.843L1275.36,622.903L1275.36,849.092L1298.61,849.092L1298.61,919.612L1284.91,919.612L1284.91,1038.16L-26.224,1038.16L-26.224,897.22L-6.112,897.22Z" style="fill:rgb(195,229,244);"/>
  </g>
  <g class="houses" transform="matrix(0.794628,0,0,0.794628,125.979,-33.0014)">
      <g class="house1">
          <g transform="matrix(-0.785473,-0.618896,-0.618896,0.785473,862.86,341.294)">
              <path d="M-140.064,-15.721L-87.019,-15.721L-5.449,48.55L-61.311,46.331L-140.064,-15.721Z" style="fill:rgb(82,193,233);fill-rule:nonzero;"/>
          </g>
          <g transform="matrix(-1,-0,0,1,1864.95,-187.119)">
              <rect x="882.343" y="602.75" width="100.262" height="5.619" style="fill:rgb(62,99,100);"/>
          </g>
          <g transform="matrix(1,0,0,1,840.848,467.172)">
              <path d="M0,-75.771L41.496,-45.922L46.154,-45.922L46.154,0L-38.358,0L-39.246,-45.922L0,-75.771Z" style="fill:rgb(255,255,253);fill-rule:nonzero;"/>
          </g>
          <g transform="matrix(1,0,0,1,0,-144.495)">
              <rect x="863.156" y="579.7" width="9.095" height="9.095" style="fill:rgb(82,193,233);"/>
          </g>
          <g transform="matrix(1,0,0,1,0,-122.977)">
              <rect x="863.156" y="568.941" width="9.095" height="9.095" style="fill:rgb(82,193,233);"/>
          </g>
          <g transform="matrix(1,0,0,1,0,-144.495)">
              <rect x="851.954" y="579.7" width="9.095" height="9.095" style="fill:rgb(82,193,233);"/>
          </g>
          <g transform="matrix(1,0,0,1,0,-122.977)">
              <rect x="851.954" y="568.941" width="9.095" height="9.095" style="fill:rgb(82,193,233);"/>
          </g>
          <g transform="matrix(1,0,0,1,0,-121.702)">
              <rect x="832.213" y="556.908" width="12.089" height="31.886" style="fill:rgb(82,193,233);"/>
          </g>
          <g transform="matrix(1,0,0,1,0,-121.702)">
              <rect x="818.23" y="556.908" width="12.089" height="31.886" style="fill:rgb(82,193,233);"/>
          </g>
      </g>
      <g class="house2">
          <g transform="matrix(1,0,0,1,0,-146.38)">
              <rect x="948.445" y="580.643" width="9.095" height="9.094" style="fill:rgb(103,192,185);"/>
          </g>
          <g transform="matrix(1,0,0,1,0,-146.38)">
              <rect x="937.354" y="580.643" width="9.095" height="9.094" style="fill:rgb(103,192,185);"/>
          </g>
          <g transform="matrix(1,0,0,1,0,-124.863)">
              <rect x="948.445" y="569.884" width="9.095" height="9.095" style="fill:rgb(103,192,185);"/>
          </g>
          <g transform="matrix(1,0,0,1,0,-124.863)">
              <rect x="937.354" y="569.884" width="9.095" height="9.095" style="fill:rgb(103,192,185);"/>
          </g>
          <g transform="matrix(-0.785473,-0.618896,-0.618896,0.785473,994.176,341.294)">
              <path d="M-140.064,-15.721L-87.019,-15.721L-5.449,48.55L-61.311,46.331L-140.064,-15.721Z" style="fill:rgb(82,193,233);fill-rule:nonzero;"/>
          </g>
          <g transform="matrix(1,0,0,1,968.409,421.249)">
              <path d="M0,-38.448L-48.356,0L-41.48,0L0,-32.681L45.251,0L45.251,-5.619L0,-38.448Z" style="fill:rgb(237,198,0);fill-rule:nonzero;"/>
          </g>
          <g transform="matrix(-1,-0,0,1,2127.58,-187.119)">
              <rect x="1013.66" y="602.75" width="100.262" height="5.619" style="fill:rgb(62,99,100);"/>
          </g>
          <g transform="matrix(1,0,0,1,0,-135.58)">
              <rect x="1018.32" y="556.829" width="86.288" height="45.922" style="fill:rgb(18,111,183);"/>
          </g>
          <g transform="matrix(1,0,0,1,0,-146.38)">
              <rect x="1079.76" y="580.643" width="9.095" height="9.094" style="fill:rgb(103,192,185);"/>
          </g>
          <g transform="matrix(1,0,0,1,0,-146.38)">
              <rect x="1068.67" y="580.643" width="9.094" height="9.094" style="fill:rgb(103,192,185);"/>
          </g>
          <g transform="matrix(1,0,0,1,0,-124.863)">
              <rect x="1079.76" y="569.884" width="9.095" height="9.095" style="fill:rgb(103,192,185);"/>
          </g>
          <g transform="matrix(1,0,0,1,0,-124.863)">
              <rect x="1068.67" y="569.884" width="9.094" height="9.095" style="fill:rgb(103,192,185);"/>
          </g>
          <g transform="matrix(1,0,0,1,0,-146.38)">
              <rect x="1046.82" y="580.643" width="9.095" height="9.094" style="fill:rgb(82,193,233);"/>
          </g>
          <g transform="matrix(1,0,0,1,0,-124.863)">
              <rect x="1046.82" y="569.884" width="9.095" height="9.095" style="fill:rgb(82,193,233);"/>
          </g>
          <g transform="matrix(1,0,0,1,972.164,467.172)">
              <path d="M0,-75.771L41.496,-45.922L46.153,-45.922L46.153,0L-38.358,0L-39.246,-45.922L0,-75.771Z" style="fill:rgb(255,255,253);fill-rule:nonzero;"/>
          </g>
          <g transform="matrix(1,0,0,1,0,-146.38)">
              <rect x="1035.62" y="580.643" width="9.094" height="9.094" style="fill:rgb(82,193,233);"/>
          </g>
          <g transform="matrix(1,0,0,1,0,-124.863)">
              <rect x="1035.62" y="569.884" width="9.094" height="9.095" style="fill:rgb(82,193,233);"/>
          </g>
          <g transform="matrix(1,0,0,1,0,-144.495)">
              <rect x="994.473" y="579.7" width="9.095" height="9.095" style="fill:rgb(82,193,233);"/>
          </g>
          <g transform="matrix(1,0,0,1,0,-122.977)">
              <rect x="994.473" y="568.941" width="9.095" height="9.095" style="fill:rgb(82,193,233);"/>
          </g>
          <g transform="matrix(1,0,0,1,0,-144.495)">
              <rect x="983.271" y="579.7" width="9.095" height="9.095" style="fill:rgb(82,193,233);"/>
          </g>
          <g transform="matrix(1,0,0,1,0,-122.977)">
              <rect x="983.271" y="568.941" width="9.095" height="9.095" style="fill:rgb(82,193,233);"/>
          </g>
          <g transform="matrix(1,0,0,1,0,-121.702)">
              <rect x="963.529" y="556.908" width="12.089" height="31.886" style="fill:rgb(82,193,233);"/>
          </g>
          <g transform="matrix(1,0,0,1,0,-121.702)">
              <rect x="949.546" y="556.908" width="12.09" height="31.886" style="fill:rgb(82,193,233);"/>
          </g>
          <g transform="matrix(-0.795947,0.605367,0.605367,0.795947,1066.49,429.273)">
              <path d="M-48.796,-10.568L0.511,-10.568L5.277,-14.193L-47.522,-15.096L-48.796,-10.568Z" style="fill:rgb(18,111,183);fill-rule:nonzero;"/>
          </g>
      </g>
      <g class="house3">
          <g transform="matrix(-0.785473,-0.618896,-0.618896,0.785473,1120.94,341.215)">
              <path d="M-140.064,-15.721L-87.019,-15.721L-5.449,48.55L-61.311,46.331L-140.064,-15.721Z" style="fill:rgb(82,193,233);fill-rule:nonzero;"/>
          </g>
          <g transform="matrix(1,0,0,1,1095.18,421.17)">
              <path d="M0,-38.448L-48.356,0L-41.479,0L0,-32.681L45.251,0L45.251,-5.619L0,-38.448Z" style="fill:rgb(237,198,0);fill-rule:nonzero;"/>
          </g>
          <g transform="matrix(-1,-0,0,1,2381.12,-187.279)">
              <rect x="1140.43" y="602.83" width="100.262" height="5.619" style="fill:rgb(62,99,100);"/>
          </g>
          <g transform="matrix(1,0,0,1,0,-135.737)">
              <rect x="1145.09" y="556.908" width="86.287" height="45.921" style="fill:rgb(18,111,183);"/>
          </g>
          <g transform="matrix(1,0,0,1,0,-146.539)">
              <rect x="1206.53" y="580.722" width="9.095" height="9.095" style="fill:rgb(82,193,233);"/>
          </g>
          <g transform="matrix(1,0,0,1,0,-146.539)">
              <rect x="1195.44" y="580.722" width="9.095" height="9.095" style="fill:rgb(82,193,233);"/>
          </g>
          <g transform="matrix(1,0,0,1,0,-125.021)">
              <rect x="1206.53" y="569.963" width="9.095" height="9.095" style="fill:rgb(82,193,233);"/>
          </g>
          <g transform="matrix(1,0,0,1,0,-125.021)">
              <rect x="1195.44" y="569.963" width="9.095" height="9.095" style="fill:rgb(82,193,233);"/>
          </g>
          <g transform="matrix(1,0,0,1,0,-146.539)">
              <rect x="1173.59" y="580.722" width="9.094" height="9.095" style="fill:rgb(82,193,233);"/>
          </g>
          <g transform="matrix(1,0,0,1,0,-125.021)">
              <rect x="1173.59" y="569.963" width="9.094" height="9.095" style="fill:rgb(82,193,233);"/>
          </g>
          <g transform="matrix(1,0,0,1,1098.93,467.092)">
              <path d="M0,-75.77L41.496,-45.921L46.154,-45.921L46.154,0L-38.358,0L-39.246,-45.921L0,-75.77Z" style="fill:rgb(255,255,253);fill-rule:nonzero;"/>
          </g>
          <g transform="matrix(1,0,0,1,0,-146.539)">
              <rect x="1162.39" y="580.722" width="9.095" height="9.095" style="fill:rgb(82,193,233);"/>
          </g>
          <g transform="matrix(1,0,0,1,0,-125.021)">
              <rect x="1162.39" y="569.963" width="9.095" height="9.095" style="fill:rgb(82,193,233);"/>
          </g>
          <g transform="matrix(1,0,0,1,0,-144.653)">
              <rect x="1121.24" y="579.779" width="9.095" height="9.095" style="fill:rgb(82,193,233);"/>
          </g>
          <g transform="matrix(1,0,0,1,0,-123.136)">
              <rect x="1121.24" y="569.021" width="9.095" height="9.094" style="fill:rgb(82,193,233);"/>
          </g>
          <g transform="matrix(1,0,0,1,0,-144.653)">
              <rect x="1110.04" y="579.779" width="9.094" height="9.095" style="fill:rgb(82,193,233);"/>
          </g>
          <g transform="matrix(1,0,0,1,0,-123.136)">
              <rect x="1110.04" y="569.021" width="9.094" height="9.094" style="fill:rgb(82,193,233);"/>
          </g>
          <g transform="matrix(1,0,0,1,0,-121.86)">
              <rect x="1090.3" y="556.987" width="12.089" height="31.886" style="fill:rgb(82,193,233);"/>
          </g>
          <g transform="matrix(1,0,0,1,0,-121.86)">
              <rect x="1076.32" y="556.987" width="12.089" height="31.886" style="fill:rgb(82,193,233);"/>
          </g>
      </g>
  </g>

  <g class="trees" transform="matrix(0.794628,0,0,0.794628,66.0237,-33.9225)">
      <g class="treesRight" transform="matrix(1,0,0,1,53.9485,2.07218)">
          <g>
              <g transform="matrix(1,0,0,1,959.087,432.718)">
                  <path d="M0,0C0,-15.718 12.742,-28.46 28.46,-28.46C44.179,-28.46 56.921,-15.718 56.921,0C56.921,15.718 44.179,28.46 28.46,28.46C12.742,28.46 0,15.718 0,0" style="fill:rgb(20,150,209);fill-rule:nonzero;"/>
              </g>
              <g transform="matrix(1,0,0,1,987.547,430.304)">
                  <path d="M0,53.703L0,8.873L-7.788,0" style="fill:none;stroke:rgb(18,111,183);stroke-width:1.26px;"/>
              </g>
              <g transform="matrix(0.585777,-0.810472,-0.810472,-0.585777,994.076,439.61)">
                  <path d="M-3.007,5.883L11.511,5.883" style="fill:none;stroke:rgb(18,111,183);stroke-width:1.26px;"/>
              </g>
          </g>
          <g>
              <g transform="matrix(1,0,0,1,1037.92,443.925)">
                  <path d="M0,0.001C0,-12.022 9.747,-21.77 21.771,-21.77C33.793,-21.77 43.54,-12.022 43.54,0.001C43.54,12.024 33.793,21.771 21.771,21.771C9.747,21.771 0,12.024 0,0.001" style="fill:rgb(20,150,209);fill-rule:nonzero;"/>
              </g>
              <g transform="matrix(1,0,0,1,1059.69,442.079)">
                  <path d="M0,41.079L0,6.787L-5.958,0" style="fill:none;stroke:rgb(18,111,183);stroke-width:1.26px;"/>
              </g>
              <g transform="matrix(0.585727,-0.810508,-0.810508,-0.585727,1064.68,449.197)">
                  <path d="M-2.3,4.5L8.804,4.5" style="fill:none;stroke:rgb(18,111,183);stroke-width:1.26px;"/>
              </g>
          </g>
          <g>
              <g transform="matrix(1,0,0,1,881.204,428.646)">
                  <path d="M0,0C0,-15.718 12.742,-28.46 28.46,-28.46C44.179,-28.46 56.921,-15.718 56.921,0C56.921,15.718 44.179,28.46 28.46,28.46C12.742,28.46 0,15.718 0,0" style="fill:rgb(20,150,209);fill-rule:nonzero;"/>
              </g>
              <g transform="matrix(1,0,0,1,909.664,426.232)">
                  <path d="M0,53.703L0,8.874L-7.788,0" style="fill:none;stroke:rgb(18,111,183);stroke-width:1.26px;"/>
              </g>
              <g transform="matrix(0.585745,-0.810496,-0.810496,-0.585745,916.194,435.538)">
                  <path d="M-3.007,5.884L11.511,5.884" style="fill:none;stroke:rgb(18,111,183);stroke-width:1.26px;"/>
              </g>
          </g>
      </g>
      <g class="treesLeft" transform="matrix(1,0,0,1,-569.813,-2.54396)">
          <g>
              <g transform="matrix(1,0,0,1,959.087,432.718)">
                  <path d="M0,0C0,-15.718 12.742,-28.46 28.46,-28.46C44.179,-28.46 56.921,-15.718 56.921,0C56.921,15.718 44.179,28.46 28.46,28.46C12.742,28.46 0,15.718 0,0" style="fill:rgb(20,150,209);fill-rule:nonzero;"/>
              </g>
              <g transform="matrix(1,0,0,1,987.547,430.304)">
                  <path d="M0,53.703L0,8.873L-7.788,0" style="fill:none;stroke:rgb(18,111,183);stroke-width:1.26px;"/>
              </g>
              <g transform="matrix(0.585777,-0.810472,-0.810472,-0.585777,994.076,439.61)">
                  <path d="M-3.007,5.883L11.511,5.883" style="fill:none;stroke:rgb(18,111,183);stroke-width:1.26px;"/>
              </g>
          </g>
          <g>
              <g transform="matrix(1,0,0,1,1037.92,443.925)">
                  <path d="M0,0.001C0,-12.022 9.747,-21.77 21.771,-21.77C33.793,-21.77 43.54,-12.022 43.54,0.001C43.54,12.024 33.793,21.771 21.771,21.771C9.747,21.771 0,12.024 0,0.001" style="fill:rgb(20,150,209);fill-rule:nonzero;"/>
              </g>
              <g transform="matrix(1,0,0,1,1059.69,442.079)">
                  <path d="M0,41.079L0,6.787L-5.958,0" style="fill:none;stroke:rgb(18,111,183);stroke-width:1.26px;"/>
              </g>
              <g transform="matrix(0.585727,-0.810508,-0.810508,-0.585727,1064.68,449.197)">
                  <path d="M-2.3,4.5L8.804,4.5" style="fill:none;stroke:rgb(18,111,183);stroke-width:1.26px;"/>
              </g>
          </g>
          <g>
              <g transform="matrix(1,0,0,1,881.204,428.646)">
                  <path d="M0,0C0,-15.718 12.742,-28.46 28.46,-28.46C44.179,-28.46 56.921,-15.718 56.921,0C56.921,15.718 44.179,28.46 28.46,28.46C12.742,28.46 0,15.718 0,0" style="fill:rgb(20,150,209);fill-rule:nonzero;"/>
              </g>
              <g transform="matrix(1,0,0,1,909.664,426.232)">
                  <path d="M0,53.703L0,8.874L-7.788,0" style="fill:none;stroke:rgb(18,111,183);stroke-width:1.26px;"/>
              </g>
              <g transform="matrix(0.585745,-0.810496,-0.810496,-0.585745,916.194,435.538)">
                  <path d="M-3.007,5.884L11.511,5.884" style="fill:none;stroke:rgb(18,111,183);stroke-width:1.26px;"/>
              </g>
          </g>
      </g>
  </g>
  <g class="water" transform="matrix(0.883753,0,0,0.883753,29.2927,-64.7954)">
      <g transform="matrix(1,0,0,1,26.5527,488.8)">
          <path d="M0,3.087C50.345,-77.938 101.918,-128.539 108.058,-86.048C114.197,-43.557 143.667,24.338 180.505,-15.135C217.343,-54.608 303.953,-122.285 296.585,-66.863C289.217,-11.442 331.149,44.334 366.759,22.057C402.368,-0.219 439.209,64.956 356.938,98.291C274.668,131.626 125.829,59.964 135.652,110.04L-38.065,83.143C-17.199,30.716 0,3.087 0,3.087" style="fill:rgb(0,90,124);fill-rule:nonzero;"/>
      </g>
      <g transform="matrix(1,0,0,1,453.381,524.749)">
          <path d="M0,46.576C26.464,42.636 45.577,18.151 24.994,9.075C4.411,0 17.643,29.932 0,46.576" style="fill:rgb(0,90,124);fill-rule:nonzero;"/>
      </g>
  </g>
  <g class="mainObjects" transform="matrix(0.794628,0,0,0.794628,40.0591,-14.7187)">
      <g class="drapeau" transform="matrix(1,0,0,1,109.256,-10.5455)">
          <g class="drapeau2">
              <g transform="matrix(-1,-0,0,1,1401.4,-83.866)">
                  <rect x="678.274" y="491.909" width="44.849" height="124.048" style="fill:white;"/>
              </g>
              <g transform="matrix(-1,-0,0,1,1305.02,0.105)">
                  <rect x="649.648" y="407.938" width="5.725" height="208.019" style="fill:rgb(18,111,183);"/>
              </g>
              <g transform="matrix(-1,-0,0,1,1316.47,0.105)">
                  <rect x="655.373" y="407.938" width="5.726" height="208.019" style="fill:rgb(237,198,0);"/>
              </g>
              <g transform="matrix(-1,-0,0,1,1339.37,-203.145)">
                  <rect x="661.098" y="611.187" width="17.176" height="4.771" style="fill:rgb(18,111,183);"/>
              </g>
              <g transform="matrix(-1,-0,0,1,1339.37,35.411)">
                  <rect x="661.098" y="491.909" wclassth="17.176" height="4.771" style="fill:rgb(18,111,183);"/>
              </g>
          </g>
          <g class="drapeau1">
              <g transform="matrix(-1,-0,0,1,1212.46,-83.866)">
                  <rect x="583.807" y="491.909" width="44.848" height="124.048" style="fill:white;"/>
              </g>
              <g transform="matrix(-1,-0,0,1,1116.09,0.105)">
                  <rect x="555.181" y="407.938" width="5.725" height="208.019" style="fill:rgb(18,111,183);"/>
              </g>
              <g transform="matrix(-1,-0,0,1,1127.54,0.105)">
                  <rect x="560.905" y="407.938" width="5.726" height="208.019" style="fill:rgb(237,198,0);"/>
              </g>
              <g transform="matrix(-1,-0,0,1,1150.44,-203.145)">
                  <rect x="566.631" y="611.187" width="17.176" height="4.771" style="fill:rgb(18,111,183);"/>
              </g>
              <g transform="matrix(-1,-0,0,1,1150.44,35.411)">
                  <rect x="566.631" y="491.909" width="17.176" height="4.771" style="fill:rgb(18,111,183);"/>
              </g>
          </g>
          <g class="drapeauYellowButton" transform="matrix(1,0,0,1,631.124,345.44)">
              <path d="M0,0C0,-4.847 3.929,-8.776 8.776,-8.776C13.623,-8.776 17.552,-4.847 17.552,0C17.552,4.847 13.623,8.776 8.776,8.776C3.929,8.776 0,4.847 0,0" style="fill:rgb(237,198,0);fill-rule:nonzero;"/>
          </g>
      </g>
        <g class="waterBubbles">
          <g class="waterBubble">
              <g transform="matrix(1,0,0,1,149.833,572.566)">
                  <path d="M0,0C0,-4.79 -3.883,-8.673 -8.673,-8.673C-13.463,-8.673 -17.346,-4.79 -17.346,0C-17.346,4.79 -13.463,8.673 -8.673,8.673C-3.883,8.673 0,4.79 0,0" style="fill:rgb(18,111,183);fill-rule:nonzero;"/>
              </g>
              <g transform="matrix(1,0,0,1,187.322,567.748)">
                  <path d="M0,0C0,-4.605 -3.733,-8.338 -8.337,-8.338C-12.942,-8.338 -16.675,-4.605 -16.675,0C-16.675,4.604 -12.942,8.338 -8.337,8.338C-3.733,8.338 0,4.604 0,0" style="fill:rgb(18,111,183);fill-rule:nonzero;"/>
              </g>
              <g transform="matrix(1,0,0,1,201.39,569.434)">
                  <path d="M0,10.119C-10.48,14.937 -43.546,13.251 -45.172,13.251C-46.798,13.251 -59.085,1.868 -59.085,1.868C-59.085,1.868 -56.917,0.241 -53.845,0.241C-44.086,0.241 -40.293,9.276 -40.293,9.276C-31.982,9.096 -15.901,6.746 -19.273,3.855C-22.646,0.964 -20.237,-3.855 -17.346,-4.336C-14.455,-4.818 -5.24,-0.843 -5.24,-0.843C-6.324,2.771 -3.794,7.89 0,10.119" style="fill:rgb(20,150,209);fill-rule:nonzero;"/>
              </g>
              <g transform="matrix(1,0,0,1,201.34,580.092)">
                  <path d="M0,-0.517C-0.135,-0.455 -0.587,-0.263 -1.44,0.003C-0.959,-0.173 -0.49,-0.336 -0.003,-0.52C-0.002,-0.519 0,-0.518 0,-0.517" style="fill:rgb(195,229,244);fill-rule:nonzero;"/>
              </g>
              <g transform="matrix(1,0,0,1,220.904,471.023)">
                  <path d="M0,98.832C0.723,94.857 2.349,83.293 2.349,83.293C2.349,83.293 32.343,90.882 49.87,89.256C67.396,87.63 94.5,72.994 94.5,72.994L112.75,75.704C112.75,75.704 117.989,73.536 117.267,71.007C116.544,68.477 114.195,64.321 114.195,64.321C125.578,62.514 132.083,65.405 132.625,67.212C133.167,69.019 130.638,85.462 130.638,85.462L88.718,149.063L46.076,157.194L0,109.132C0,109.132 -0.723,102.808 0,98.832M-128.891,24.69C-128.891,24.69 -126,62.273 -127.445,67.092C-128.891,71.91 -80.954,109.975 -80.954,109.975C-74.352,112.174 -58.063,122.624 -21.004,109.071C-24.846,110.269 -36.822,112.94 -64.687,111.661C-64.687,111.661 -102.812,76.969 -106.245,71.91C-109.678,66.851 -112.93,48.963 -111.846,45.529C-110.762,42.097 -103.173,48.594 -103.173,48.594C-103.173,48.594 -45.292,72.392 -27.464,75.042L-25.658,95.761C-25.196,99.8 -22.503,104.489 -19.567,108.549C-19.549,108.542 -19.532,108.536 -19.514,108.529C-19.514,108.529 -19.535,108.538 -19.564,108.552C-15.606,114.024 -11.203,118.347 -11.203,118.347L29.452,157.736C29.452,157.736 44.811,166.591 51.315,166.591C57.82,166.591 97.933,157.917 97.933,157.917C97.933,157.917 100.101,157.736 102.45,154.123C104.799,150.509 149.429,85.281 149.429,85.281C149.429,85.281 158.644,58.358 156.114,43C153.585,27.641 143.346,16.017 143.346,16.017C126.963,-2.293 114.436,-42.767 53.243,-55.776C11.742,-64.6 -44.552,-67.759 -86.489,-55.776C-99.981,-51.922 -136.119,-32.167 -128.891,24.69" style="fill:rgb(228,236,239);fill-rule:nonzero;"/>
              </g>
              <g transform="matrix(0.931985,0.362497,0.362497,-0.931985,310.894,626.496)">
                  <path d="M-3.509,5.512L6.96,5.512L-32.744,-20.012L-40.303,-17.524L-3.509,5.512Z" style="fill:rgb(20,150,209);fill-rule:nonzero;"/>
              </g>
              <g transform="matrix(1,0,0,1,335.822,519.618)">
                  <path d="M0,-17.52C-7.589,-16.978 -54.207,-14.448 -65.047,-14.81C-65.047,-14.81 -69.384,-9.57 -69.565,-8.124C-69.746,-6.679 -70.107,-5.429 -64.686,0C-64.686,0 -6.324,-2.342 -4.156,-3.426C-1.987,-4.51 4.156,-10.292 3.433,-13.183C2.71,-16.074 0,-17.52 0,-17.52" style="fill:rgb(20,150,209);fill-rule:nonzero;"/>
              </g>
              <g transform="matrix(1,0,0,1,120.717,497.363)">
                  <path d="M0,-72.72C21.043,-84.026 60.057,-93.476 65.426,-46.238C70.795,1.001 48.631,20.756 46.944,20.756C45.258,20.756 -12.563,13.374 -14.008,-19.796C-15.453,-52.965 0,-72.72 0,-72.72" style="fill:rgb(20,150,209);fill-rule:nonzero;"/>
              </g>
              <g transform="matrix(1,0,0,1,168.625,413.56)">
                  <path d="M0,85.647C-13.853,84.201 -46.738,73.659 -47.822,53.123C-48.906,32.586 -39.51,10.842 -32.283,9.397C-25.055,7.951 5.662,-2.891 16.142,31.079C22.285,48.425 9.999,88.538 0,85.647" style="fill:rgb(82,193,233);fill-rule:nonzero;"/>
              </g>
              <g transform="matrix(1,0,0,1,196.812,484.632)">
                  <path d="M0,-59.508C0,-59.508 26.26,-9.638 26.983,-4.579C27.706,0.481 140.455,-2.772 140.455,-2.772C140.455,-2.772 158.283,-0.965 148.405,-15.661C138.527,-30.357 125.277,-56.617 101.426,-58.303C77.576,-59.989 0,-59.508 0,-59.508" style="fill:rgb(82,193,233);fill-rule:nonzero;"/>
              </g>
              <g transform="matrix(-0.0500795,0.998745,0.998745,0.0500795,265.607,497.63)">
                  <path d="M-72.934,10.222L-15.285,10.222C-15.285,10.222 -11.224,-35.931 -15.46,-42.639L-68.969,-72.339L-72.934,10.222Z" style="fill:rgb(20,150,209);fill-rule:nonzero;"/>
              </g>
              <g class="waterBubbleEyes">
                  <g transform="matrix(1,0,0,1,255.235,485.218)">
                      <path d="M0,1.341C-7.038,-9.803 -22.586,-9.5 -23.309,-2.453C-24.031,4.593 -17.396,11.144 -3.975,9.653C-0.723,9.291 2.168,4.774 0,1.341" style="fill:rgb(18,111,183);fill-rule:nonzero;"/>
                  </g>
                  <g transform="matrix(1,0,0,1,349.373,484.149)">
                      <path d="M0,1.145C-1.807,-4.095 -11.745,-11.323 -12.106,-2.288C-12.467,6.746 -0.903,12.468 0.542,5.421C0.542,2.771 0,1.145 0,1.145" style="fill:rgb(18,111,183);fill-rule:nonzero;"/>
                  </g>
              </g>
              <g transform="matrix(1,0,0,1,171.848,417.429)">
                  <path d="M0,-7.964C18.46,-5.314 16.533,-0.495 23.52,-0.255C30.506,-0.013 117.771,1.995 117.771,1.995C117.771,1.995 77.07,-8.755 48.735,-9.357C20.401,-9.959 0,-7.964 0,-7.964" style="fill:rgb(20,150,209);fill-rule:nonzero;"/>
              </g>
              <g transform="matrix(0.828263,-0.560339,-0.560339,-0.828263,193.103,547.93)">
                  <path d="M-3.248,-6.86C-8.619,-6.462 -17.833,-5.464 -26.654,4.285C-26.654,4.285 -12.124,-2.775 -3.248,6.125L1.324,1.355L-3.248,-6.86Z" style="fill:rgb(82,193,233);fill-rule:nonzero;"/>
              </g>
              <g transform="matrix(1,0,0,1,117.731,560.383)">
                  <path d="M0,-40.766C0,-40.766 -12.227,-26.846 -7.408,-24.196C-2.59,-21.545 26.079,-1.79 50.894,-1.068C58.368,0 68.33,-8.18 69.249,-15.706C69.249,-15.706 18.449,-32.501 0,-40.766" style="fill:rgb(195,229,244);fill-rule:nonzero;"/>
              </g>
              <g transform="matrix(1,0,0,1,335.099,546.728)">
                  <path d="M0,-11.383C-6.264,-10.299 -9.155,-7.214 -9.155,-7.214L-1.445,0C-1.445,0 4.008,-2.243 3.072,-4.697C2.135,-7.153 0,-11.383 0,-11.383" style="fill:rgb(82,193,233);fill-rule:nonzero;"/>
              </g>
              <g transform="matrix(1,0,0,1,212.954,634.856)">
                  <path d="M0,-53.617L54.026,1.687C54.026,1.687 40.333,-3.257 37.402,-6.096C34.472,-8.935 -7.77,-48.196 -11.564,-55.304C-11.564,-55.304 -2.349,-53.075 0,-53.617" style="fill:rgb(82,193,233);fill-rule:nonzero;"/>
              </g>
              <g transform="matrix(1,0,0,1,186.98,519.617)">
                  <path d="M0,25.06C0,25.06 -61.015,5.825 -69.249,0C-51.825,14.593 0,25.06 0,25.06" style="fill:rgb(82,193,233);fill-rule:nonzero;"/>
              </g>
          </g>
          <g class="waterBubbleYellowButton" transform="matrix(1,0,0,1,222.124,354.44)">
              <path d="M0,0C0,-4.847 3.929,-8.776 8.776,-8.776C13.623,-8.776 17.552,-4.847 17.552,0C17.552,4.847 13.623,8.776 8.776,8.776C3.929,8.776 0,4.847 0,0" style="fill:rgb(237,198,0);fill-rule:nonzero;"/>
          </g>
      </g>
  </g>
</svg>
