<?xml version="1.0" encoding="utf-8"?>
<!-- Generator: Adobe Illustrator 22.0.1, SVG Export Plug-In . SVG Version: 6.00 Build 0)  -->
<svg version="1.1" xmlns="http://www.w3.org/2000/svg" xmlns:xlink="http://www.w3.org/1999/xlink" x="0px" y="0px"
	 viewBox="0 0 1280 1024" style="enable-background:new 0 0 1280 1024;" xml:space="preserve">
<style type="text/css">
	.st0{fill:#EAF2F4;}
	.st1{fill:#83CEE2;}
	.st2{fill:#C3E5F4;}
	.st3{fill:#52C1E9;}
	.st4{fill:#EDC600;}
	.st5{fill:#3E6364;}
	.st6{fill:#126FB7;}
	.st7{fill:#67C0B9;}
	.st8{fill:#FFFFFD;}
	.st9{fill:#005A7C;}
	.st10{fill:#1496D1;}
	.st11{fill:none;}
	.st12{fill:#E4ECEF;}
	.st13{fill:#FFFFFF;}
	.st14{fill:none;stroke:#126FB7;stroke-linecap:round;stroke-linejoin:round;stroke-miterlimit:10;}
</style>
<g id="Calque_3">
	<rect x="0" y="0" class="st0" width="1280" height="971.6"/>
</g>
<g id="Calque_4">
	<polygon class="st1" points="1280,452 -12,453.1 -18.1,570.1 1289.2,782 	"/>
</g>
<g id="Calque_5">
	<path class="st2" d="M386.8,300h92.8c0,0-3.7-14.5-14.6-7.2c-6.7-27.7-45.8-21.9-46.7-2C413.3,277,388.5,280.4,386.8,300z"/>
	<path class="st2" d="M262.3,253H403c0,0-5.6-21.9-22.1-11c-10.1-41.9-69.4-33.2-70.7-3.1C302.3,218.2,264.8,223.3,262.3,253z"/>
	<path class="st2" d="M786.2,320.5H907c0,0-4.8-18.8-19-9.4c-8.7-36-59.6-28.5-60.7-2.6C820.6,290.6,788.4,295.1,786.2,320.5z"/>
</g>
<g id="Calque_2">
	<polygon class="st2" points="-266,535.5 1653.3,813 1652.4,1049 -266,1317 	"/>
	<g>
		<polygon class="st3" points="982.6,415.6 940.9,382.8 837.1,382.8 882.3,415.6 		"/>
		<polygon class="st4" points="837.1,382.8 788.7,421.2 795.6,421.2 837.1,388.6 882.3,421.2 882.3,415.6 		"/>
		<rect x="882.3" y="415.6" class="st5" width="100.3" height="5.6"/>
		<polygon class="st6" points="840.8,391.4 801.6,421.2 795.6,421.2 837.1,388.6 		"/>
		
			<rect x="887" y="421.2" transform="matrix(-1 -4.496504e-11 4.496504e-11 -1 1860.2904 888.4208)" class="st6" width="86.3" height="45.9"/>
		
			<rect x="948.4" y="434.3" transform="matrix(-1 -4.410218e-11 4.410218e-11 -1 1905.9849 877.6204)" class="st7" width="9.1" height="9.1"/>
		
			<rect x="937.4" y="434.3" transform="matrix(-1 -4.400226e-11 4.400226e-11 -1 1883.8031 877.6204)" class="st7" width="9.1" height="9.1"/>
		
			<rect x="948.4" y="445" transform="matrix(-1 -4.400226e-11 4.400226e-11 -1 1905.9849 899.1368)" class="st7" width="9.1" height="9.1"/>
		
			<rect x="937.4" y="445" transform="matrix(-1 -4.500235e-11 4.500235e-11 -1 1883.8031 899.1368)" class="st7" width="9.1" height="9.1"/>
		
			<rect x="915.5" y="434.3" transform="matrix(-1 -4.390189e-11 4.390189e-11 -1 1840.105 877.6204)" class="st3" width="9.1" height="9.1"/>
		
			<rect x="915.5" y="445" transform="matrix(-1 -4.500190e-11 4.500190e-11 -1 1840.105 899.1368)" class="st3" width="9.1" height="9.1"/>
		<polygon class="st8" points="840.8,391.4 882.3,421.2 887,421.2 887,467.2 802.5,467.2 801.6,421.2 		"/>
		
			<rect x="904.3" y="434.3" transform="matrix(-1 -4.520219e-11 4.520219e-11 -1 1817.7014 877.6204)" class="st3" width="9.1" height="9.1"/>
		
			<rect x="904.3" y="445" transform="matrix(-1 -4.500235e-11 4.500235e-11 -1 1817.7014 899.1368)" class="st3" width="9.1" height="9.1"/>
		
			<rect x="863.2" y="435.2" transform="matrix(-1 -4.500190e-11 4.500190e-11 -1 1735.4069 879.5059)" class="st3" width="9.1" height="9.1"/>
		
			<rect x="863.2" y="446" transform="matrix(-1 -4.500190e-11 4.500190e-11 -1 1735.4069 901.0222)" class="st3" width="9.1" height="9.1"/>
		
			<rect x="852" y="435.2" transform="matrix(-1 -4.500235e-11 4.500235e-11 -1 1713.0033 879.5059)" class="st3" width="9.1" height="9.1"/>
		
			<rect x="852" y="446" transform="matrix(-1 -4.620227e-11 4.620227e-11 -1 1713.0033 901.0222)" class="st3" width="9.1" height="9.1"/>
		
			<rect x="832.2" y="435.2" transform="matrix(-1 -4.559121e-11 4.559121e-11 -1 1676.5143 902.2977)" class="st3" width="12.1" height="31.9"/>
		
			<rect x="818.2" y="435.2" transform="matrix(-1 -4.453783e-11 4.453783e-11 -1 1648.5493 902.2977)" class="st3" width="12.1" height="31.9"/>
		<polygon class="st3" points="1113.9,415.6 1072.3,382.8 968.4,382.8 1013.7,415.6 		"/>
		<polygon class="st4" points="968.4,382.8 920.1,421.2 926.9,421.2 968.4,388.6 1013.7,421.2 1013.7,415.6 		"/>
		<rect x="1013.7" y="415.6" class="st5" width="100.3" height="5.6"/>
		<polygon class="st6" points="972.2,391.4 932.9,421.2 926.9,421.2 968.4,388.6 		"/>
		
			<rect x="1018.3" y="421.2" transform="matrix(-1 -4.484913e-11 4.484913e-11 -1 2122.9229 888.4208)" class="st6" width="86.3" height="45.9"/>
		
			<rect x="1079.8" y="434.3" transform="matrix(-1 -4.520219e-11 4.520219e-11 -1 2168.6174 877.6204)" class="st7" width="9.1" height="9.1"/>
		
			<rect x="1068.7" y="434.3" transform="matrix(-1 -4.520219e-11 4.520219e-11 -1 2146.4355 877.6204)" class="st7" width="9.1" height="9.1"/>
		
			<rect x="1079.8" y="445" transform="matrix(-1 -4.500235e-11 4.500235e-11 -1 2168.6174 899.1368)" class="st7" width="9.1" height="9.1"/>
		
			<rect x="1068.7" y="445" transform="matrix(-1 -4.400226e-11 4.400226e-11 -1 2146.4355 899.1368)" class="st7" width="9.1" height="9.1"/>
		
			<rect x="1046.8" y="434.3" transform="matrix(-1 -4.500235e-11 4.500235e-11 -1 2102.7375 877.6204)" class="st3" width="9.1" height="9.1"/>
		
			<rect x="1046.8" y="445" transform="matrix(-1 -4.520219e-11 4.520219e-11 -1 2102.7375 899.1368)" class="st3" width="9.1" height="9.1"/>
		<polygon class="st8" points="972.2,391.4 1013.7,421.2 1018.3,421.2 1018.3,467.2 933.8,467.2 932.9,421.2 		"/>
		
			<rect x="1035.6" y="434.3" transform="matrix(-1 -4.500235e-11 4.500235e-11 -1 2080.3337 877.6204)" class="st3" width="9.1" height="9.1"/>
		
			<rect x="1035.6" y="445" transform="matrix(-1 -4.520219e-11 4.520219e-11 -1 2080.3337 899.1368)" class="st3" width="9.1" height="9.1"/>
		
			<rect x="994.5" y="435.2" transform="matrix(-1 -4.500235e-11 4.500235e-11 -1 1998.0394 879.5059)" class="st3" width="9.1" height="9.1"/>
		
			<rect x="994.5" y="446" transform="matrix(-1 -4.500235e-11 4.500235e-11 -1 1998.0394 901.0222)" class="st3" width="9.1" height="9.1"/>
		
			<rect x="983.3" y="435.2" transform="matrix(-1 -4.500235e-11 4.500235e-11 -1 1975.6357 879.5059)" class="st3" width="9.1" height="9.1"/>
		
			<rect x="983.3" y="446" transform="matrix(-1 -4.500235e-11 4.500235e-11 -1 1975.6357 901.0222)" class="st3" width="9.1" height="9.1"/>
		
			<rect x="963.5" y="435.2" transform="matrix(-1 -4.468837e-11 4.468837e-11 -1 1939.1467 902.2977)" class="st3" width="12.1" height="31.9"/>
		
			<rect x="949.5" y="435.2" transform="matrix(-1 -4.468837e-11 4.468837e-11 -1 1911.1818 902.2977)" class="st3" width="12.1" height="31.9"/>
		<polygon class="st3" points="1240.7,415.6 1199,382.7 1095.2,382.7 1140.4,415.6 		"/>
		<polygon class="st4" points="1095.2,382.7 1046.8,421.2 1053.7,421.2 1095.2,388.5 1140.4,421.2 1140.4,415.6 		"/>
		<rect x="1140.4" y="415.6" class="st5" width="100.3" height="5.6"/>
		<polygon class="st6" points="1098.9,391.3 1059.7,421.2 1053.7,421.2 1095.2,388.5 		"/>
		
			<rect x="1145.1" y="421.2" transform="matrix(-1 -4.496504e-11 4.496504e-11 -1 2376.4609 888.2625)" class="st6" width="86.3" height="45.9"/>
		
			<rect x="1206.5" y="434.2" transform="matrix(-1 -4.510227e-11 4.510227e-11 -1 2422.1553 877.462)" class="st3" width="9.1" height="9.1"/>
		
			<rect x="1195.4" y="434.2" transform="matrix(-1 -4.510227e-11 4.510227e-11 -1 2399.9736 877.462)" class="st3" width="9.1" height="9.1"/>
		
			<rect x="1206.5" y="444.9" transform="matrix(-1 -4.500235e-11 4.500235e-11 -1 2422.1553 898.9784)" class="st3" width="9.1" height="9.1"/>
		
			<rect x="1195.4" y="444.9" transform="matrix(-1 -4.380197e-11 4.380197e-11 -1 2399.9736 898.9784)" class="st3" width="9.1" height="9.1"/>
		
			<rect x="1173.6" y="434.2" transform="matrix(-1 -4.400226e-11 4.400226e-11 -1 2356.2754 877.462)" class="st3" width="9.1" height="9.1"/>
		
			<rect x="1173.6" y="444.9" transform="matrix(-1 -4.520219e-11 4.520219e-11 -1 2356.2754 898.9784)" class="st3" width="9.1" height="9.1"/>
		<polygon class="st8" points="1098.9,391.3 1140.4,421.2 1145.1,421.2 1145.1,467.1 1060.6,467.1 1059.7,421.2 		"/>
		
			<rect x="1162.4" y="434.2" transform="matrix(-1 -4.500235e-11 4.500235e-11 -1 2333.8718 877.462)" class="st3" width="9.1" height="9.1"/>
		
			<rect x="1162.4" y="444.9" transform="matrix(-1 -4.500235e-11 4.500235e-11 -1 2333.8718 898.9784)" class="st3" width="9.1" height="9.1"/>
		
			<rect x="1121.2" y="435.1" transform="matrix(-1 -4.500235e-11 4.500235e-11 -1 2251.5774 879.3475)" class="st3" width="9.1" height="9.1"/>
		
			<rect x="1121.2" y="445.9" transform="matrix(-1 -4.520219e-11 4.520219e-11 -1 2251.5774 900.8638)" class="st3" width="9.1" height="9.1"/>
		
			<rect x="1110" y="435.1" transform="matrix(-1 -4.500235e-11 4.500235e-11 -1 2229.1736 879.3475)" class="st3" width="9.1" height="9.1"/>
		
			<rect x="1110" y="445.9" transform="matrix(-1 -4.520219e-11 4.520219e-11 -1 2229.1736 900.8638)" class="st3" width="9.1" height="9.1"/>
		
			<rect x="1090.3" y="435.1" transform="matrix(-1 -4.544066e-11 4.544066e-11 -1 2192.6846 902.1393)" class="st3" width="12.1" height="31.9"/>
		
			<rect x="1076.3" y="435.1" transform="matrix(-1 -4.544066e-11 4.544066e-11 -1 2164.7197 902.1393)" class="st3" width="12.1" height="31.9"/>
	</g>
</g>
<g id="Calque_1">
	<path class="st9" d="M26.6,491.9c50.3-81,101.9-131.6,108.1-89.1s35.6,110.4,72.4,70.9s123.4-107.2,116.1-51.7
		c-7.4,55.4,34.6,111.2,70.2,88.9s72.5,42.9-9.8,76.2c-82.3,33.3-231.1-38.3-221.3,11.7l-173.7-26.9
		C9.4,519.5,26.6,491.9,26.6,491.9z"/>
	<path class="st9" d="M453.4,571.3c26.5-3.9,45.6-28.4,25-37.5C457.8,524.7,471,554.7,453.4,571.3z"/>
	<g>
		<circle class="st6" cx="141.2" cy="572.6" r="8.7"/>
		<circle class="st6" cx="179" cy="567.7" r="8.3"/>
		<path class="st10" d="M201.4,579.6c-10.5,4.8-43.5,3.1-45.2,3.1s-13.9-11.4-13.9-11.4s2.2-1.6,5.2-1.6c9.8,0,13.6,9,13.6,9
			c8.3-0.2,24.4-2.5,21-5.4c-3.4-2.9-1-7.7,1.9-8.2s12.1,3.5,12.1,3.5C195.1,572.2,197.6,577.3,201.4,579.6z"/>
		<g>
			<path class="st11" d="M201.4,579.6C201.4,579.6,201.4,579.6,201.4,579.6C201.3,579.6,201.3,579.6,201.4,579.6
				C201.4,579.6,201.4,579.6,201.4,579.6z"/>
			<path class="st11" d="M156.2,582.7c0,0-38.1-34.7-41.6-39.8c-3.4-5.1-6.7-22.9-5.6-26.4s8.7,3.1,8.7,3.1s57.9,23.8,75.7,26.4
				l1.8,20.7c0.5,4,3.2,8.7,6.1,12.8c-0.5,0.2-1,0.3-1.4,0.5C196.1,581.3,184.1,584,156.2,582.7z"/>
			<path class="st2" d="M201.3,579.6c-0.1,0.1-0.6,0.3-1.4,0.5C200.4,579.9,200.9,579.8,201.3,579.6
				C201.3,579.6,201.3,579.6,201.3,579.6z"/>
			<path class="st12" d="M92,495.7c0,0,2.9,37.6,1.4,42.4S140,581,140,581c6.6,2.2,22.9,12.6,59.9-0.9c-3.8,1.2-15.8,3.9-43.7,2.6
				c0,0-38.1-34.7-41.6-39.8c-3.4-5.1-6.7-22.9-5.6-26.4s8.7,3.1,8.7,3.1s57.9,23.8,75.7,26.4l1.8,20.7c0.5,4,3.2,8.7,6.1,12.8
				c0,0,0,0,0.1,0c0,0,0,0-0.1,0c4,5.5,8.4,9.8,8.4,9.8l40.7,39.4c0,0,15.4,8.9,21.9,8.9s46.6-8.7,46.6-8.7s2.2-0.2,4.5-3.8
				c2.3-3.6,47-68.8,47-68.8s9.2-26.9,6.7-42.3c-2.5-15.4-12.8-27-12.8-27c-16.4-18.3-28.9-58.8-90.1-71.8
				c-41.5-8.8-97.8-12-139.7,0C120.9,419.1,84.8,438.9,92,495.7z M220.9,569.9c0.7-4,2.3-15.5,2.3-15.5s30,7.6,47.5,6
				c17.5-1.6,44.6-16.3,44.6-16.3l18.2,2.7c0,0,5.2-2.2,4.5-4.7c-0.7-2.5-3.1-6.7-3.1-6.7c11.4-1.8,17.9,1.1,18.4,2.9
				c0.5,1.8-2,18.2-2,18.2l-41.9,63.6l-42.6,8.1l-46.1-48.1C220.9,580.2,220.2,573.8,220.9,569.9z"/>
		</g>
		<polygon class="st10" points="309.6,620.1 319.4,623.9 273.1,633.3 267,628.2 		"/>
		<path class="st10" d="M335.8,502.1c-7.6,0.5-54.2,3.1-65,2.7c0,0-4.3,5.2-4.5,6.7s-0.5,2.7,4.9,8.1c0,0,58.4-2.3,60.5-3.4
			c2.2-1.1,8.3-6.9,7.6-9.8C338.5,503.5,335.8,502.1,335.8,502.1z"/>
		<path class="st10" d="M120.7,424.6c21-11.3,60.1-20.8,65.4,26.5c5.4,47.2-16.8,67-18.5,67c-1.7,0-59.5-7.4-61-40.6
			S120.7,424.6,120.7,424.6z"/>
		<path class="st3" d="M168.6,499.2c-13.9-1.4-46.7-12-47.8-32.5c-1.1-20.5,8.3-42.3,15.5-43.7c7.2-1.4,37.9-12.3,48.4,21.7
			C190.9,462,178.6,502.1,168.6,499.2z"/>
		<path class="st3" d="M196.8,425.1c0,0,26.3,49.9,27,54.9s113.5,1.8,113.5,1.8s17.8,1.8,8-12.9c-9.9-14.7-23.1-41-47-42.6
			C274.4,424.6,196.8,425.1,196.8,425.1z"/>
		<path class="st10" d="M279.5,425.3l-2.9,57.6c0,0-46.3,1.7-52.8-2.8l-27-54.9L279.5,425.3z"/>
		<path class="st6" d="M255.2,486.6c-7-11.1-22.6-10.8-23.3-3.8c-0.7,7,5.9,13.6,19.3,12.1C254.5,494.5,257.4,490,255.2,486.6z"/>
		<path class="st6" d="M349.4,485.3c-1.8-5.2-11.7-12.5-12.1-3.4s11.2,14.8,12.6,7.7C349.9,486.9,349.4,485.3,349.4,485.3z"/>
		<path class="st10" d="M171.8,409.5c18.5,2.7,16.5,7.5,23.5,7.7c7,0.2,94.3,2.2,94.3,2.2s-40.7-10.8-69-11.4
			C192.2,407.5,171.8,409.5,171.8,409.5z"/>
		<path class="st3" d="M194.3,555.4c-4.7,2.7-12.9,7-25.6,3.9c0,0,16-2.3,18.4-14.6l6.5,1.4L194.3,555.4z"/>
		<path class="st2" d="M117.7,519.6c0,0-12.2,13.9-7.4,16.6c4.8,2.7,33.5,22.4,58.3,23.1c7.5,1.1,17.4-7.1,18.4-14.6
			C187,544.7,136.2,527.9,117.7,519.6z"/>
		<path class="st3" d="M335.1,535.3c-6.3,1.1-9.2,4.2-9.2,4.2l7.7,7.2c0,0,5.5-2.2,4.5-4.7C337.2,539.6,335.1,535.3,335.1,535.3z"/>
		<path class="st3" d="M213,581.2l54,55.3c0,0-13.7-4.9-16.6-7.8s-45.2-42.1-49-49.2C201.4,579.6,210.6,581.8,213,581.2z"/>
		<path class="st3" d="M187,544.7c0,0-61-19.2-69.2-25.1C135.2,534.2,187,544.7,187,544.7z"/>
	</g>
	<g>
		<rect x="678.3" y="408" class="st13" width="44.8" height="124"/>
		<rect x="649.6" y="408" class="st6" width="5.7" height="208"/>
		<rect x="655.4" y="408" class="st4" width="5.7" height="208"/>
		<rect x="661.1" y="408" class="st6" width="17.2" height="4.8"/>
		<rect x="661.1" y="527.3" class="st6" width="17.2" height="4.8"/>
		<rect x="583.8" y="408" class="st13" width="44.8" height="124"/>
		<rect x="555.2" y="408" class="st6" width="5.7" height="208"/>
		<rect x="560.9" y="408" class="st4" width="5.7" height="208"/>
		<rect x="566.6" y="408" class="st6" width="17.2" height="4.8"/>
		<rect x="566.6" y="527.3" class="st6" width="17.2" height="4.8"/>
	</g>
	<circle class="st4" cx="639.9" cy="345.4" r="8.8"/>
	<circle class="st4" cx="230.9" cy="354.4" r="8.8"/>
	<g>
		<circle class="st10" cx="987.5" cy="432.7" r="28.5"/>
		<polyline class="st14" points="987.5,484 987.5,439.2 979.8,430.3 		"/>
		<line class="st14" x1="987.5" y1="438.6" x2="996.1" y2="426.8"/>
	</g>
	<g>
		<circle class="st10" cx="1059.7" cy="443.9" r="21.8"/>
		<polyline class="st14" points="1059.7,483.2 1059.7,448.9 1053.7,442.1 		"/>
		<line class="st14" x1="1059.7" y1="448.4" x2="1066.2" y2="439.4"/>
	</g>
	<g>
		<circle class="st10" cx="909.7" cy="428.6" r="28.5"/>
		<polyline class="st14" points="909.7,479.9 909.7,435.1 901.9,426.2 		"/>
		<line class="st14" x1="909.7" y1="434.5" x2="918.2" y2="422.8"/>
	</g>
</g>
</svg>
