<?xml version="1.0" encoding="utf-8"?>
<!-- Generator: Adobe Illustrator 22.0.1, SVG Export Plug-In . SVG Version: 6.00 Build 0)  -->
<svg version="1.1" id="Calque_1" xmlns="http://www.w3.org/2000/svg" xmlns:xlink="http://www.w3.org/1999/xlink" x="0px" y="0px"
	 viewBox="0 0 1280 1024" style="enable-background:new 0 0 1280 1024;" xml:space="preserve">
<style type="text/css">
	.st0{fill:#EAF2F4;}
	.st1{fill:#126FB7;}
	.st2{fill:#52C1E9;}
	.st3{fill:#FFFFFF;}
	.st4{display:none;fill:#005A7C;}
	.st5{fill:#005A7C;}
	.st6{fill:#C3E5F4;}
	.st7{fill:none;stroke:#126FB7;stroke-linecap:round;stroke-linejoin:round;stroke-miterlimit:10;}
	.st8{fill:#FFFFFD;}
	.st9{fill:#EDC600;}
	.st10{fill:#1496D1;}
	.st11{fill:none;stroke:#C3E5F4;stroke-width:2;stroke-linecap:round;stroke-linejoin:round;stroke-miterlimit:10;}
	.st12{fill:#C6E3F6;}
	.st13{fill:#52C0EC;}
	.st14{fill:none;stroke:#EDC600;stroke-width:2;stroke-linecap:round;stroke-linejoin:round;stroke-miterlimit:10;}
</style>
<rect x="1" y="0" class="st0" width="1278" height="727.9"/>
<g>
	<g>
		<rect x="538.4" y="223.6" class="st1" width="52.1" height="307.2"/>
		<rect x="549.7" y="238.4" class="st2" width="11.7" height="11.7"/>
		<rect x="564.8" y="238.4" class="st2" width="11.7" height="11.7"/>
		<rect x="549.8" y="257.2" class="st2" width="11.7" height="11.7"/>
		<rect x="564.8" y="257.2" class="st2" width="11.7" height="11.7"/>
		<rect x="549.9" y="273.7" class="st2" width="11.7" height="11.7"/>
		<rect x="564.9" y="273.7" class="st2" width="11.7" height="11.7"/>
		<rect x="549.9" y="291.8" class="st2" width="11.7" height="11.7"/>
		<rect x="565" y="291.8" class="st2" width="11.7" height="11.7"/>
		<rect x="549.9" y="309.9" class="st2" width="11.7" height="11.7"/>
		<rect x="564.9" y="309.9" class="st2" width="11.7" height="11.7"/>
		<rect x="549.9" y="328.6" class="st2" width="11.7" height="11.7"/>
		<rect x="565" y="328.6" class="st2" width="11.7" height="11.7"/>
		<rect x="550" y="345.2" class="st2" width="11.7" height="11.7"/>
		<rect x="565" y="345.2" class="st2" width="11.7" height="11.7"/>
		<rect x="550.1" y="363.2" class="st2" width="11.7" height="11.7"/>
		<rect x="565.1" y="363.2" class="st2" width="11.7" height="11.7"/>
		<rect x="549.9" y="381.3" class="st2" width="11.7" height="11.7"/>
		<rect x="564.9" y="381.3" class="st2" width="11.7" height="11.7"/>
		<rect x="549.9" y="400" class="st2" width="11.7" height="11.7"/>
		<rect x="565" y="400" class="st2" width="11.7" height="11.7"/>
		<rect x="550" y="416.6" class="st2" width="11.7" height="11.7"/>
		<rect x="565" y="416.6" class="st2" width="11.7" height="11.7"/>
		<rect x="550.1" y="434.7" class="st2" width="11.7" height="11.7"/>
		<rect x="565.1" y="434.7" class="st2" width="11.7" height="11.7"/>
		<rect x="549.9" y="451.7" class="st2" width="11.7" height="11.7"/>
		<rect x="565" y="451.7" class="st2" width="11.7" height="11.7"/>
		<rect x="550" y="469.8" class="st2" width="11.7" height="11.7"/>
		<rect x="565" y="469.8" class="st2" width="11.7" height="11.7"/>
		<rect x="550.1" y="487.8" class="st2" width="11.7" height="11.7"/>
		<rect x="565.1" y="487.8" class="st2" width="11.7" height="11.7"/>
		<rect x="550.1" y="505.9" class="st2" width="11.7" height="11.7"/>
		<rect x="565.2" y="505.9" class="st2" width="11.7" height="11.7"/>
	</g>
	<g>
		<rect x="437.7" y="224.2" class="st1" width="52.1" height="307.2"/>
		<rect x="449" y="239" class="st2" width="11.7" height="11.7"/>
		<rect x="464.1" y="239" class="st2" width="11.7" height="11.7"/>
		<rect x="449.1" y="257.7" class="st2" width="11.7" height="11.7"/>
		<rect x="464.1" y="257.7" class="st2" width="11.7" height="11.7"/>
		<rect x="449.1" y="274.3" class="st2" width="11.7" height="11.7"/>
		<rect x="464.2" y="274.3" class="st2" width="11.7" height="11.7"/>
		<rect x="449.2" y="292.4" class="st2" width="11.7" height="11.7"/>
		<rect x="464.2" y="292.4" class="st2" width="11.7" height="11.7"/>
		<rect x="449.2" y="310.4" class="st2" width="11.7" height="11.7"/>
		<rect x="464.2" y="310.4" class="st2" width="11.7" height="11.7"/>
		<rect x="449.2" y="329.2" class="st2" width="11.7" height="11.7"/>
		<rect x="464.3" y="329.2" class="st2" width="11.7" height="11.7"/>
		<rect x="449.3" y="345.7" class="st2" width="11.7" height="11.7"/>
		<rect x="464.3" y="345.7" class="st2" width="11.7" height="11.7"/>
		<rect x="449.4" y="363.8" class="st2" width="11.7" height="11.7"/>
		<rect x="464.4" y="363.8" class="st2" width="11.7" height="11.7"/>
		<rect x="449.2" y="381.9" class="st2" width="11.7" height="11.7"/>
		<rect x="464.2" y="381.9" class="st2" width="11.7" height="11.7"/>
		<rect x="449.2" y="400.6" class="st2" width="11.7" height="11.7"/>
		<rect x="464.3" y="400.6" class="st2" width="11.7" height="11.7"/>
		<rect x="449.3" y="417.2" class="st2" width="11.7" height="11.7"/>
		<rect x="464.3" y="417.2" class="st2" width="11.7" height="11.7"/>
		<rect x="449.4" y="435.2" class="st2" width="11.7" height="11.7"/>
		<rect x="464.4" y="435.2" class="st2" width="11.7" height="11.7"/>
		<rect x="449.2" y="452.3" class="st2" width="11.7" height="11.7"/>
		<rect x="464.2" y="452.3" class="st2" width="11.7" height="11.7"/>
		<rect x="449.3" y="470.4" class="st2" width="11.7" height="11.7"/>
		<rect x="464.3" y="470.4" class="st2" width="11.7" height="11.7"/>
		<rect x="449.4" y="488.4" class="st2" width="11.7" height="11.7"/>
		<rect x="464.4" y="488.4" class="st2" width="11.7" height="11.7"/>
		<rect x="449.4" y="506.5" class="st2" width="11.7" height="11.7"/>
		<rect x="464.5" y="506.5" class="st2" width="11.7" height="11.7"/>
	</g>
	<rect x="400.7" y="257.5" class="st3" width="64.6" height="273.9"/>
	<rect x="412.1" y="275.4" class="st2" width="11.7" height="11.7"/>
	<rect x="427.1" y="275.4" class="st2" width="11.7" height="11.7"/>
	<rect x="442.1" y="275.4" class="st2" width="11.7" height="11.7"/>
	<rect x="412.2" y="294.2" class="st2" width="11.7" height="11.7"/>
	<rect x="427.2" y="294.2" class="st2" width="11.7" height="11.7"/>
	<rect x="442.1" y="294.2" class="st2" width="11.7" height="11.7"/>
	<rect x="412.2" y="310.7" class="st2" width="11.7" height="11.7"/>
	<rect x="427.3" y="310.7" class="st2" width="11.7" height="11.7"/>
	<rect x="442.2" y="310.7" class="st2" width="11.7" height="11.7"/>
	<rect x="412.3" y="328.8" class="st2" width="11.7" height="11.7"/>
	<rect x="427.3" y="328.8" class="st2" width="11.7" height="11.7"/>
	<rect x="442.2" y="328.8" class="st2" width="11.7" height="11.7"/>
	<rect x="412.3" y="346.9" class="st2" width="11.7" height="11.7"/>
	<rect x="427.3" y="346.9" class="st2" width="11.7" height="11.7"/>
	<rect x="442.2" y="346.9" class="st2" width="11.7" height="11.7"/>
	<rect x="412.3" y="365.6" class="st2" width="11.7" height="11.7"/>
	<rect x="427.4" y="365.6" class="st2" width="11.7" height="11.7"/>
	<rect x="442.3" y="365.6" class="st2" width="11.7" height="11.7"/>
	<rect x="412.4" y="382.2" class="st2" width="11.7" height="11.7"/>
	<rect x="427.4" y="382.2" class="st2" width="11.7" height="11.7"/>
	<rect x="442.3" y="382.2" class="st2" width="11.7" height="11.7"/>
	<rect x="412.5" y="400.2" class="st2" width="11.7" height="11.7"/>
	<rect x="427.5" y="400.2" class="st2" width="11.7" height="11.7"/>
	<rect x="442.4" y="400.2" class="st2" width="11.7" height="11.7"/>
	<rect x="412.3" y="418.3" class="st2" width="11.7" height="11.7"/>
	<rect x="427.3" y="418.3" class="st2" width="11.7" height="11.7"/>
	<rect x="442.2" y="418.3" class="st2" width="11.7" height="11.7"/>
	<rect x="412.3" y="437" class="st2" width="11.7" height="11.7"/>
	<rect x="427.4" y="437" class="st2" width="11.7" height="11.7"/>
	<rect x="442.3" y="437" class="st2" width="11.7" height="11.7"/>
	<rect x="412.4" y="453.6" class="st2" width="11.7" height="11.7"/>
	<rect x="427.4" y="453.6" class="st2" width="11.7" height="11.7"/>
	<rect x="442.3" y="453.6" class="st2" width="11.7" height="11.7"/>
	<rect x="412.5" y="471.6" class="st2" width="11.7" height="11.7"/>
	<rect x="427.5" y="471.6" class="st2" width="11.7" height="11.7"/>
	<rect x="442.4" y="471.6" class="st2" width="11.7" height="11.7"/>
	<rect x="412.3" y="488.7" class="st2" width="11.7" height="11.7"/>
	<rect x="427.3" y="488.7" class="st2" width="11.7" height="11.7"/>
	<rect x="442.2" y="488.7" class="st2" width="11.7" height="11.7"/>
	<rect x="412.4" y="506.8" class="st2" width="11.7" height="11.7"/>
	<rect x="427.4" y="506.8" class="st2" width="11.7" height="11.7"/>
	<rect x="442.3" y="506.8" class="st2" width="11.7" height="11.7"/>
	<rect x="485.2" y="257.5" class="st3" width="64.6" height="273.9"/>
	<rect x="496.6" y="275.4" class="st2" width="11.7" height="11.7"/>
	<rect x="511.7" y="275.4" class="st2" width="11.7" height="11.7"/>
	<rect x="526.6" y="275.4" class="st2" width="11.7" height="11.7"/>
	<rect x="496.7" y="294.2" class="st2" width="11.7" height="11.7"/>
	<rect x="511.7" y="294.2" class="st2" width="11.7" height="11.7"/>
	<rect x="526.6" y="294.2" class="st2" width="11.7" height="11.7"/>
	<rect x="496.7" y="310.7" class="st2" width="11.7" height="11.7"/>
	<rect x="511.8" y="310.7" class="st2" width="11.7" height="11.7"/>
	<rect x="526.7" y="310.7" class="st2" width="11.7" height="11.7"/>
	<rect x="496.8" y="328.8" class="st2" width="11.7" height="11.7"/>
	<rect x="511.9" y="328.8" class="st2" width="11.7" height="11.7"/>
	<rect x="526.8" y="328.8" class="st2" width="11.7" height="11.7"/>
	<rect x="496.8" y="346.9" class="st2" width="11.7" height="11.7"/>
	<rect x="511.8" y="346.9" class="st2" width="11.7" height="11.7"/>
	<rect x="526.7" y="346.9" class="st2" width="11.7" height="11.7"/>
	<rect x="496.8" y="365.6" class="st2" width="11.7" height="11.7"/>
	<rect x="511.9" y="365.6" class="st2" width="11.7" height="11.7"/>
	<rect x="526.8" y="365.6" class="st2" width="11.7" height="11.7"/>
	<rect x="496.9" y="382.2" class="st2" width="11.7" height="11.7"/>
	<rect x="511.9" y="382.2" class="st2" width="11.7" height="11.7"/>
	<rect x="526.9" y="382.2" class="st2" width="11.7" height="11.7"/>
	<rect x="497" y="400.2" class="st2" width="11.7" height="11.7"/>
	<rect x="512" y="400.2" class="st2" width="11.7" height="11.7"/>
	<rect x="526.9" y="400.2" class="st2" width="11.7" height="11.7"/>
	<rect x="496.8" y="418.3" class="st2" width="11.7" height="11.7"/>
	<rect x="511.8" y="418.3" class="st2" width="11.7" height="11.7"/>
	<rect x="526.7" y="418.3" class="st2" width="11.7" height="11.7"/>
	<rect x="496.8" y="437" class="st2" width="11.7" height="11.7"/>
	<rect x="511.9" y="437" class="st2" width="11.7" height="11.7"/>
	<rect x="526.8" y="437" class="st2" width="11.7" height="11.7"/>
	<rect x="496.9" y="453.6" class="st2" width="11.7" height="11.7"/>
	<rect x="511.9" y="453.6" class="st2" width="11.7" height="11.7"/>
	<rect x="526.9" y="453.6" class="st2" width="11.7" height="11.7"/>
	<rect x="497" y="471.6" class="st2" width="11.7" height="11.7"/>
	<rect x="512" y="471.6" class="st2" width="11.7" height="11.7"/>
	<rect x="526.9" y="471.6" class="st2" width="11.7" height="11.7"/>
	<rect x="496.8" y="488.7" class="st2" width="11.7" height="11.7"/>
	<rect x="511.9" y="488.7" class="st2" width="11.7" height="11.7"/>
	<rect x="526.8" y="488.7" class="st2" width="11.7" height="11.7"/>
	<rect x="496.9" y="506.8" class="st2" width="11.7" height="11.7"/>
	<rect x="511.9" y="506.8" class="st2" width="11.7" height="11.7"/>
	<rect x="526.8" y="506.8" class="st2" width="11.7" height="11.7"/>
	<rect x="682.3" y="224.8" class="st3" width="87.9" height="306.7"/>
	<rect x="709.3" y="242.3" class="st2" width="11.7" height="11.7"/>
	<rect x="730" y="242.7" class="st2" width="11.7" height="11.7"/>
	<rect x="744.9" y="242.7" class="st2" width="11.7" height="11.7"/>
	<rect x="709.3" y="261" class="st2" width="11.7" height="11.7"/>
	<rect x="730" y="261.4" class="st2" width="11.7" height="11.7"/>
	<rect x="745" y="261.4" class="st2" width="11.7" height="11.7"/>
	<rect x="709.4" y="277.6" class="st2" width="11.7" height="11.7"/>
	<rect x="730.1" y="278" class="st2" width="11.7" height="11.7"/>
	<rect x="745" y="278" class="st2" width="11.7" height="11.7"/>
	<rect x="709.5" y="295.7" class="st2" width="11.7" height="11.7"/>
	<rect x="730.2" y="296" class="st2" width="11.7" height="11.7"/>
	<rect x="745.1" y="296" class="st2" width="11.7" height="11.7"/>
	<rect x="709.4" y="313.7" class="st2" width="11.7" height="11.7"/>
	<rect x="730.1" y="314.1" class="st2" width="11.7" height="11.7"/>
	<rect x="745.1" y="314.1" class="st2" width="11.7" height="11.7"/>
	<rect x="709.5" y="332.4" class="st2" width="11.7" height="11.7"/>
	<rect x="730.2" y="332.8" class="st2" width="11.7" height="11.7"/>
	<rect x="745.1" y="332.8" class="st2" width="11.7" height="11.7"/>
	<rect x="709.6" y="349" class="st2" width="11.7" height="11.7"/>
	<rect x="730.3" y="349.4" class="st2" width="11.7" height="11.7"/>
	<rect x="745.2" y="349.4" class="st2" width="11.7" height="11.7"/>
	<rect x="709.6" y="367.1" class="st2" width="11.7" height="11.7"/>
	<rect x="730.3" y="367.5" class="st2" width="11.7" height="11.7"/>
	<rect x="745.2" y="367.5" class="st2" width="11.7" height="11.7"/>
	<rect x="709.4" y="385.1" class="st2" width="11.7" height="11.7"/>
	<rect x="730.1" y="385.5" class="st2" width="11.7" height="11.7"/>
	<rect x="745.1" y="385.5" class="st2" width="11.7" height="11.7"/>
	<rect x="709.5" y="403.9" class="st2" width="11.7" height="11.7"/>
	<rect x="730.2" y="404.2" class="st2" width="11.7" height="11.7"/>
	<rect x="745.1" y="404.2" class="st2" width="11.7" height="11.7"/>
	<rect x="709.6" y="420.4" class="st2" width="11.7" height="11.7"/>
	<rect x="730.3" y="420.8" class="st2" width="11.7" height="11.7"/>
	<rect x="745.2" y="420.8" class="st2" width="11.7" height="11.7"/>
	<rect x="709.6" y="438.5" class="st2" width="11.7" height="11.7"/>
	<rect x="730.3" y="438.9" class="st2" width="11.7" height="11.7"/>
	<rect x="745.2" y="438.9" class="st2" width="11.7" height="11.7"/>
	<rect x="709.5" y="455.6" class="st2" width="11.7" height="11.7"/>
	<rect x="730.2" y="455.9" class="st2" width="11.7" height="11.7"/>
	<rect x="745.1" y="455.9" class="st2" width="11.7" height="11.7"/>
	<rect x="709.5" y="473.6" class="st2" width="11.7" height="11.7"/>
	<rect x="694.9" y="242.3" class="st2" width="11.7" height="11.7"/>
	<rect x="694.9" y="261" class="st2" width="11.7" height="11.7"/>
	<rect x="709.7" y="491.1" class="st2" width="11.7" height="11.7"/>
	<rect x="730.4" y="491.5" class="st2" width="11.7" height="11.7"/>
	<rect x="745.3" y="491.5" class="st2" width="11.7" height="11.7"/>
	<rect x="709.8" y="509.8" class="st2" width="11.7" height="11.7"/>
	<rect x="730.5" y="508.2" class="st2" width="11.7" height="11.7"/>
	<rect x="745.4" y="508.2" class="st2" width="11.7" height="11.7"/>
	<rect x="695.3" y="491.1" class="st2" width="11.7" height="11.7"/>
	<rect x="695.4" y="509.8" class="st2" width="11.7" height="11.7"/>
	<rect x="695" y="277.6" class="st2" width="11.7" height="11.7"/>
	<rect x="695" y="295.7" class="st2" width="11.7" height="11.7"/>
	<rect x="695" y="313.7" class="st2" width="11.7" height="11.7"/>
	<rect x="695.1" y="332.4" class="st2" width="11.7" height="11.7"/>
	<rect x="695.1" y="349" class="st2" width="11.7" height="11.7"/>
	<rect x="695.2" y="367.1" class="st2" width="11.7" height="11.7"/>
	<rect x="695" y="385.1" class="st2" width="11.7" height="11.7"/>
	<rect x="695.1" y="403.9" class="st2" width="11.7" height="11.7"/>
	<rect x="695.1" y="420.4" class="st2" width="11.7" height="11.7"/>
	<rect x="695.2" y="438.5" class="st2" width="11.7" height="11.7"/>
	<rect x="695" y="455.6" class="st2" width="11.7" height="11.7"/>
	<rect x="695.1" y="473.6" class="st2" width="11.7" height="11.7"/>
	<rect x="730.2" y="474" class="st2" width="11.7" height="11.7"/>
	<rect x="745.1" y="474" class="st2" width="11.7" height="11.7"/>
	<rect x="569.5" y="345.1" class="st3" width="86.8" height="186.4"/>
	<rect x="599.6" y="361.7" class="st2" width="11.7" height="11.7"/>
	<rect x="614.7" y="361.7" class="st2" width="11.7" height="11.7"/>
	<rect x="629.6" y="361.7" class="st2" width="11.7" height="11.7"/>
	<rect x="599.7" y="380.5" class="st2" width="11.7" height="11.7"/>
	<rect x="614.7" y="380.5" class="st2" width="11.7" height="11.7"/>
	<rect x="629.6" y="380.5" class="st2" width="11.7" height="11.7"/>
	<rect x="599.7" y="397" class="st2" width="11.7" height="11.7"/>
	<rect x="614.8" y="397" class="st2" width="11.7" height="11.7"/>
	<rect x="629.7" y="397" class="st2" width="11.7" height="11.7"/>
	<rect x="599.8" y="415.1" class="st2" width="11.7" height="11.7"/>
	<rect x="614.8" y="415.1" class="st2" width="11.7" height="11.7"/>
	<rect x="629.8" y="415.1" class="st2" width="11.7" height="11.7"/>
	<rect x="599.8" y="433.2" class="st2" width="11.7" height="11.7"/>
	<rect x="614.8" y="433.2" class="st2" width="11.7" height="11.7"/>
	<rect x="629.7" y="433.2" class="st2" width="11.7" height="11.7"/>
	<rect x="599.8" y="451.9" class="st2" width="11.7" height="11.7"/>
	<rect x="614.9" y="451.9" class="st2" width="11.7" height="11.7"/>
	<rect x="629.8" y="451.9" class="st2" width="11.7" height="11.7"/>
	<rect x="599.9" y="468.5" class="st2" width="11.7" height="11.7"/>
	<rect x="614.9" y="468.5" class="st2" width="11.7" height="11.7"/>
	<rect x="629.9" y="468.5" class="st2" width="11.7" height="11.7"/>
	<rect x="600" y="486.5" class="st2" width="11.7" height="11.7"/>
	<rect x="615" y="486.5" class="st2" width="11.7" height="11.7"/>
	<rect x="629.9" y="486.5" class="st2" width="11.7" height="11.7"/>
	<rect x="599.8" y="504.6" class="st2" width="11.7" height="11.7"/>
	<rect x="614.8" y="504.6" class="st2" width="11.7" height="11.7"/>
	<rect x="629.7" y="504.6" class="st2" width="11.7" height="11.7"/>
	<rect x="584.2" y="361.9" class="st2" width="11.7" height="11.7"/>
	<rect x="584.3" y="380.6" class="st2" width="11.7" height="11.7"/>
	<rect x="584.3" y="397.2" class="st2" width="11.7" height="11.7"/>
	<rect x="584.4" y="415.3" class="st2" width="11.7" height="11.7"/>
	<rect x="584.3" y="433.3" class="st2" width="11.7" height="11.7"/>
	<rect x="584.4" y="452.1" class="st2" width="11.7" height="11.7"/>
	<rect x="584.5" y="468.6" class="st2" width="11.7" height="11.7"/>
	<rect x="584.5" y="486.7" class="st2" width="11.7" height="11.7"/>
	<rect x="584.3" y="504.7" class="st2" width="11.7" height="11.7"/>
	<rect x="769.9" y="224.2" class="st1" width="52.1" height="307.2"/>
	<rect x="781.2" y="239" class="st2" width="11.7" height="11.7"/>
	<rect x="796.2" y="239" class="st2" width="11.7" height="11.7"/>
	<rect x="781.2" y="257.7" class="st2" width="11.7" height="11.7"/>
	<rect x="796.3" y="257.7" class="st2" width="11.7" height="11.7"/>
	<rect x="781.3" y="274.3" class="st2" width="11.7" height="11.7"/>
	<rect x="796.3" y="274.3" class="st2" width="11.7" height="11.7"/>
	<rect x="781.4" y="292.4" class="st2" width="11.7" height="11.7"/>
	<rect x="796.4" y="292.4" class="st2" width="11.7" height="11.7"/>
	<rect x="781.3" y="310.4" class="st2" width="11.7" height="11.7"/>
	<rect x="796.4" y="310.4" class="st2" width="11.7" height="11.7"/>
	<rect x="781.4" y="329.2" class="st2" width="11.7" height="11.7"/>
	<rect x="796.4" y="329.2" class="st2" width="11.7" height="11.7"/>
	<rect x="781.4" y="345.7" class="st2" width="11.7" height="11.7"/>
	<rect x="796.5" y="345.7" class="st2" width="11.7" height="11.7"/>
	<rect x="656" y="345.7" class="st1" width="66.4" height="186.9"/>
	<rect x="667.2" y="361.9" class="st2" width="11.7" height="11.7"/>
	<rect x="681.5" y="361.8" class="st2" width="11.7" height="11.7"/>
	<rect x="667.3" y="380.6" class="st2" width="11.7" height="11.7"/>
	<rect x="681.6" y="380.5" class="st2" width="11.7" height="11.7"/>
	<rect x="667.3" y="397.2" class="st2" width="11.7" height="11.7"/>
	<rect x="681.7" y="397.1" class="st2" width="11.7" height="11.7"/>
	<rect x="667.4" y="415.3" class="st2" width="11.7" height="11.7"/>
	<rect x="681.7" y="415.1" class="st2" width="11.7" height="11.7"/>
	<rect x="667.4" y="433.3" class="st2" width="11.7" height="11.7"/>
	<rect x="681.7" y="433.2" class="st2" width="11.7" height="11.7"/>
	<rect x="667.4" y="452.1" class="st2" width="11.7" height="11.7"/>
	<rect x="681.7" y="451.9" class="st2" width="11.7" height="11.7"/>
	<rect x="667.5" y="468.6" class="st2" width="11.7" height="11.7"/>
	<rect x="681.8" y="468.5" class="st2" width="11.7" height="11.7"/>
	<rect x="696.2" y="361.9" class="st2" width="11.7" height="11.7"/>
	<rect x="696.2" y="380.6" class="st2" width="11.7" height="11.7"/>
	<rect x="696.3" y="397.2" class="st2" width="11.7" height="11.7"/>
	<rect x="667.7" y="485.2" class="st2" width="11.7" height="11.7"/>
	<rect x="682.1" y="485" class="st2" width="11.7" height="11.7"/>
	<rect x="667.8" y="503.9" class="st2" width="11.7" height="11.7"/>
	<rect x="682.1" y="503.8" class="st2" width="11.7" height="11.7"/>
	<rect x="696.7" y="485.2" class="st2" width="11.7" height="11.7"/>
	<rect x="696.8" y="503.9" class="st2" width="11.7" height="11.7"/>
	<rect x="696.4" y="415.3" class="st2" width="11.7" height="11.7"/>
	<rect x="696.3" y="433.3" class="st2" width="11.7" height="11.7"/>
	<rect x="696.4" y="452.1" class="st2" width="11.7" height="11.7"/>
	<rect x="696.5" y="468.6" class="st2" width="11.7" height="11.7"/>
	<rect x="781.5" y="363.8" class="st2" width="11.7" height="11.7"/>
	<rect x="796.6" y="363.8" class="st2" width="11.7" height="11.7"/>
	<rect x="781.3" y="381.9" class="st2" width="11.7" height="11.7"/>
	<rect x="796.4" y="381.9" class="st2" width="11.7" height="11.7"/>
	<rect x="781.4" y="400.6" class="st2" width="11.7" height="11.7"/>
	<rect x="796.4" y="400.6" class="st2" width="11.7" height="11.7"/>
	<rect x="781.4" y="417.2" class="st2" width="11.7" height="11.7"/>
	<rect x="796.5" y="417.2" class="st2" width="11.7" height="11.7"/>
	<rect x="781.5" y="435.2" class="st2" width="11.7" height="11.7"/>
	<rect x="796.6" y="435.2" class="st2" width="11.7" height="11.7"/>
	<rect x="781.4" y="452.3" class="st2" width="11.7" height="11.7"/>
	<rect x="796.4" y="452.3" class="st2" width="11.7" height="11.7"/>
	<rect x="781.4" y="470.4" class="st2" width="11.7" height="11.7"/>
	<rect x="796.5" y="470.4" class="st2" width="11.7" height="11.7"/>
	<rect x="781.5" y="488.4" class="st2" width="11.7" height="11.7"/>
	<rect x="796.6" y="488.4" class="st2" width="11.7" height="11.7"/>
	<rect x="781.6" y="506.5" class="st2" width="11.7" height="11.7"/>
	<rect x="796.6" y="506.5" class="st2" width="11.7" height="11.7"/>
</g>
<path class="st4" d="M170,411.4c130,9.4,209.2,80.4,466,119.8c83.7,12.8,241.6-45.8,329-83.3c85-36.5,206-87.5,314-68.7l1,648.8
	L1,1022.8L0,400"/>
<polygon class="st5" points="0,411.6 1280,559.3 1280,1032.9 0,1038 "/>
<g>
	<path class="st6" d="M560.6,603.8c0,0-25.5,56.6,0,56.6C584.6,660.4,560.6,603.8,560.6,603.8z"/>
	<polyline class="st7" points="560.2,672.1 560.2,642.3 556.3,636.4 	"/>
	<line class="st7" x1="560.2" y1="652.9" x2="564.6" y2="646.9"/>
	<line class="st7" x1="560.2" y1="642.3" x2="564.6" y2="636.4"/>
</g>
<g>
	<path class="st6" d="M236.8,489.9c0,0-33.3,73.8,0,73.8C268.1,563.8,236.8,489.9,236.8,489.9z"/>
	<polyline class="st7" points="236.4,579 236.4,540.2 231.2,532.5 	"/>
	<line class="st7" x1="236.4" y1="553.9" x2="242" y2="546.1"/>
	<line class="st7" x1="236.4" y1="540.2" x2="242" y2="532.5"/>
</g>
<g>
	<path class="st6" d="M245.7,677c0,0-18.9,41.9,0,41.9C263.5,718.9,245.7,677,245.7,677z"/>
	<polyline class="st7" points="245.5,727.5 245.5,705.5 242.6,701.1 	"/>
	<line class="st7" x1="245.5" y1="713.3" x2="248.7" y2="708.8"/>
	<line class="st7" x1="245.5" y1="705.5" x2="248.7" y2="701.1"/>
</g>
<g>
	<polygon class="st8" points="917.2,535.5 957.4,535.5 957.4,510.5 937.3,493.2 917.2,510 	"/>
	<polygon class="st9" points="917.2,510 917.2,508.2 937.3,491.8 957.4,508.5 957.4,510.5 937.3,493.2 	"/>
	<circle class="st1" cx="937.4" cy="507.7" r="4.2"/>
	<rect x="923.9" y="519.7" class="st2" width="4.5" height="4.5"/>
	<rect x="923.9" y="525" class="st2" width="4.5" height="4.5"/>
	<rect x="929.5" y="519.7" class="st2" width="4.5" height="4.5"/>
	<rect x="929.5" y="525" class="st2" width="4.5" height="4.5"/>
	<rect x="937.7" y="519.7" class="st2" width="6" height="15.8"/>
	<rect x="944.7" y="519.7" class="st2" width="6" height="15.8"/>
	<polygon class="st1" points="872.4,536.2 912.6,536.2 912.6,511.2 892.5,494 872.4,510.7 	"/>
	<polygon class="st8" points="872.4,510.7 872.4,509 892.5,492.5 912.6,509.3 912.6,511.2 892.5,494 	"/>
	<circle class="st9" cx="892.6" cy="508.5" r="4.2"/>
	<rect x="879.1" y="520.4" class="st2" width="4.5" height="4.5"/>
	<rect x="879.1" y="525.7" class="st2" width="4.5" height="4.5"/>
	<rect x="884.7" y="520.4" class="st2" width="4.5" height="4.5"/>
	<rect x="884.7" y="525.7" class="st2" width="4.5" height="4.5"/>
	<rect x="893" y="520.4" class="st2" width="6" height="15.8"/>
	<rect x="899.9" y="520.4" class="st2" width="6" height="15.8"/>
	<polygon class="st2" points="961.5,536.2 1001.7,536.2 1001.7,511.2 981.6,494 961.5,510.7 	"/>
	<polygon class="st1" points="961.5,510.7 961.5,509 981.6,492.5 1001.7,509.3 1001.7,511.2 981.6,494 	"/>
	<circle class="st8" cx="981.7" cy="508.5" r="4.2"/>
	<rect x="968.2" y="520.4" class="st9" width="4.5" height="4.5"/>
	<rect x="968.2" y="525.7" class="st9" width="4.5" height="4.5"/>
	<rect x="973.7" y="520.4" class="st9" width="4.5" height="4.5"/>
	<rect x="973.7" y="525.7" class="st9" width="4.5" height="4.5"/>
	<rect x="982" y="520.4" class="st9" width="6" height="15.8"/>
	<rect x="989" y="520.4" class="st9" width="6" height="15.8"/>
</g>
<g>
	<polygon class="st8" points="238.2,462.2 291.9,462.2 291.9,428.8 265,405.8 238.2,428.2 	"/>
	<polygon class="st9" points="238.2,428.2 238.2,425.9 265,403.9 291.9,426.3 291.9,428.8 265,405.8 	"/>
	<circle class="st1" cx="265.2" cy="425.2" r="5.6"/>
	<rect x="247.1" y="441.1" class="st2" width="6" height="6"/>
	<rect x="247.1" y="448.2" class="st2" width="6" height="6"/>
	<rect x="254.6" y="441.1" class="st2" width="6" height="6"/>
	<rect x="254.6" y="448.2" class="st2" width="6" height="6"/>
	<rect x="265.6" y="441.1" class="st2" width="8" height="21.1"/>
	<rect x="274.9" y="441.1" class="st2" width="8" height="21.1"/>
	<polygon class="st1" points="178.3,463.2 232.1,463.2 232.1,429.8 205.2,406.8 178.3,429.1 	"/>
	<polygon class="st8" points="178.3,429.1 178.3,426.8 205.2,404.9 232.1,427.2 232.1,429.8 205.2,406.8 	"/>
	<circle class="st9" cx="205.3" cy="426.1" r="5.6"/>
	<rect x="187.3" y="442.1" class="st2" width="6" height="6"/>
	<rect x="187.3" y="449.2" class="st2" width="6" height="6"/>
	<rect x="194.7" y="442.1" class="st2" width="6" height="6"/>
	<rect x="194.7" y="449.2" class="st2" width="6" height="6"/>
	<rect x="205.8" y="442.1" class="st2" width="8" height="21.1"/>
	<rect x="215.1" y="442.1" class="st2" width="8" height="21.1"/>
	<polygon class="st2" points="297.3,463.2 351,463.2 351,429.8 324.1,406.8 297.3,429.1 	"/>
	<polygon class="st1" points="297.3,429.1 297.3,426.8 324.1,404.9 351,427.2 351,429.8 324.1,406.8 	"/>
	<circle class="st8" cx="324.3" cy="426.1" r="5.6"/>
	<rect x="306.3" y="442.1" class="st9" width="6" height="6"/>
	<rect x="306.3" y="449.2" class="st9" width="6" height="6"/>
	<rect x="313.7" y="442.1" class="st9" width="6" height="6"/>
	<rect x="313.7" y="449.2" class="st9" width="6" height="6"/>
	<rect x="324.8" y="442.1" class="st9" width="8" height="21.1"/>
	<rect x="334" y="442.1" class="st9" width="8" height="21.1"/>
</g>
<path class="st6" d="M296.8,208h92.8c0,0-3.7-14.5-14.6-7.2c-6.7-27.7-45.8-21.9-46.7-2C323.3,185,298.5,188.4,296.8,208z"/>
<g>
	<circle class="st10" cx="848.4" cy="609" r="15.3"/>
	<polyline class="st11" points="848.4,636.7 848.4,612.5 844.2,607.7 	"/>
	<line class="st11" x1="848.4" y1="612.2" x2="852.9" y2="605.9"/>
</g>
<g>
	<path class="st6" d="M900.6,558.2c0,0-31.3,69.5,0,69.5C930.1,627.6,900.6,558.2,900.6,558.2z"/>
	<polyline class="st7" points="900.2,641.9 900.2,605.4 895.4,598.2 	"/>
	<line class="st7" x1="900.2" y1="618.4" x2="905.6" y2="611"/>
	<line class="st7" x1="900.2" y1="605.4" x2="905.6" y2="598.2"/>
</g>
<g>
	<rect x="817.3" y="117.5" class="st1" width="69.4" height="22.4"/>
	<rect x="893.8" y="112.3" class="st1" width="21.3" height="31.7"/>
	<path class="st1" d="M886.8,159.7l34.2,0.2C913.8,141.3,889.3,146.6,886.8,159.7z"/>
	<rect x="819.6" y="120.7" class="st12" width="7.4" height="7.4"/>
	<rect x="829" y="120.7" class="st12" width="7.4" height="7.4"/>
	<rect x="838.7" y="120.7" class="st12" width="7.4" height="7.4"/>
	<rect x="848.2" y="120.7" class="st12" width="7.4" height="7.4"/>
	<rect x="857.3" y="120.7" class="st12" width="7.4" height="7.4"/>
	<rect x="866.8" y="120.7" class="st12" width="7.4" height="7.4"/>
	<rect x="819.6" y="129.7" class="st12" width="7.4" height="7.4"/>
	<rect x="829" y="129.7" class="st12" width="7.4" height="7.4"/>
	<rect x="838.7" y="129.7" class="st12" width="7.4" height="7.4"/>
	<rect x="848.2" y="129.7" class="st12" width="7.4" height="7.4"/>
	<rect x="857.3" y="129.7" class="st12" width="7.4" height="7.4"/>
	<rect x="866.8" y="129.7" class="st12" width="7.4" height="7.4"/>
	<rect x="875.6" y="120.5" class="st12" width="7.4" height="7.4"/>
	<rect x="875.6" y="129.5" class="st12" width="7.4" height="7.4"/>
	<rect x="921.5" y="117.5" class="st1" width="69.4" height="22.4"/>
	<rect x="923.7" y="120.7" class="st12" width="7.4" height="7.4"/>
	<rect x="933.2" y="120.7" class="st12" width="7.4" height="7.4"/>
	<rect x="942.9" y="120.7" class="st12" width="7.4" height="7.4"/>
	<rect x="952.3" y="120.7" class="st12" width="7.4" height="7.4"/>
	<rect x="961.5" y="120.7" class="st12" width="7.4" height="7.4"/>
	<rect x="971" y="120.7" class="st12" width="7.4" height="7.4"/>
	<rect x="923.7" y="129.7" class="st12" width="7.4" height="7.4"/>
	<rect x="933.2" y="129.7" class="st12" width="7.4" height="7.4"/>
	<rect x="942.9" y="129.7" class="st12" width="7.4" height="7.4"/>
	<rect x="952.3" y="129.7" class="st12" width="7.4" height="7.4"/>
	<rect x="961.5" y="129.7" class="st12" width="7.4" height="7.4"/>
	<rect x="971" y="129.7" class="st12" width="7.4" height="7.4"/>
	<rect x="979.8" y="120.5" class="st12" width="7.4" height="7.4"/>
	<rect x="979.8" y="129.5" class="st12" width="7.4" height="7.4"/>
	<rect x="886.8" y="126.6" class="st1" width="7.1" height="2.8"/>
	<rect x="913.4" y="126.8" class="st1" width="8" height="2.8"/>
	<rect x="896" y="109.9" class="st13" width="16.1" height="2.4"/>
	<rect x="901.7" y="162.7" class="st9" width="4.3" height="7.9"/>
	<rect x="901.7" y="176.3" class="st9" width="4.3" height="4.3"/>
	<path class="st14" d="M897.5,186c5.1,3.2,8.5,2.2,12.1,0"/>
	<path class="st14" d="M892.5,193.4c9.7,6,16,4.1,22.7,0"/>
	<path class="st14" d="M885,200.2c16.1,10.1,26.7,6.8,37.8,0"/>
</g>
<g>
	<path class="st2" d="M331.2,442.8c0,0-14.5,24.6-17.2,48.6l0.7,0.1c0,0,3.3-15.8,17.9-13.5c9.8,1.5,13.9,9.9,11.9,19.5l49.7,4.7
		c0,0-0.5-16.7,14.7-15.1c14.5,2.1,11,17.5,11,17.5l3.8-0.1c0,0,0-1.2-0.3-1.7c0,0,2.2-15.1-3.5-22.3c-5.7-7.3-9.9-7.6-13.9-11.9
		c-4-4.4-20.7-21.3-32.7-23.3S340.5,441.4,331.2,442.8z"/>
	<circle class="st1" cx="329.6" cy="492.8" r="11.7"/>
	<circle class="st1" cx="407.1" cy="500" r="11.7"/>
	<circle class="st6" cx="329.6" cy="492.8" r="9.5"/>
	<circle class="st6" cx="407.1" cy="500" r="9.1"/>
	<circle class="st10" cx="333.4" cy="466.9" r="3.7"/>
	<circle class="st6" cx="333.4" cy="466.9" r="2.9"/>
	<path class="st9" d="M323.3,458.8l3.3,0.3l7.5-12.7c0.8-1.8-1.3-2.5-3.4-2.6C330.6,443.8,324.8,455.1,323.3,458.8z"/>
	<path class="st3" d="M347.5,459.2c0,0,0.8-11.5,8.7-11.4c7.9,0.1,14.2,0.3,21.2,4.5c7,4.2,15.8,10.5,15.8,16.5
		c0,0.8,0.1,1.3-3.2,0.5S348.5,460.6,347.5,459.2z"/>
	<path class="st6" d="M411.5,472.9c-0.1,5,4.8,10.7,10.3,11.1C419.7,477.9,411.5,472.9,411.5,472.9z"/>
	<path class="st6" d="M347.1,463.5c0.3-1.9,0.7-2.1,2.4-1.7c1.7,0.4,6.3,1,5,3.4L347.1,463.5z"/>
</g>
<circle class="st9" cx="370.5" cy="425.4" r="5.7"/>
<circle class="st9" cx="904" cy="80.8" r="5.7"/>
<path class="st6" d="M526.3,174H667c0,0-5.6-21.9-22.1-11c-10.1-41.9-69.4-33.2-70.7-3.1C566.3,139.2,528.8,144.3,526.3,174z"/>
<path class="st6" d="M1050.2,241.5H1171c0,0-4.8-18.8-19-9.4c-8.7-36-59.6-28.5-60.7-2.6C1084.6,211.6,1052.4,216.1,1050.2,241.5z"
	/>
</svg>
