<?xml version="1.0" encoding="utf-8"?>
<!-- Generator: Adobe Illustrator 22.0.1, SVG Export Plug-In . SVG Version: 6.00 Build 0)  -->
<svg version="1.1" xmlns="http://www.w3.org/2000/svg" xmlns:xlink="http://www.w3.org/1999/xlink" x="0px" y="0px"
	 viewBox="0 0 1280 1024" style="enable-background:new 0 0 1280 1024;" xml:space="preserve">
<style type="text/css">
	.st0{fill:#EAF2F4;}
	.st1{fill:#1496D1;}
	.st2{fill:#126FB7;}
	.st3{fill:#EDC600;}
	.st4{fill:#FFFFFF;}
	.st5{fill:#C3E5F4;}
	.st6{fill:#52C1E9;}
	.st7{fill:#FCE3D2;}
	.st8{fill:none;stroke:#EDC600;stroke-linecap:round;stroke-linejoin:round;stroke-miterlimit:10;}
	.st9{fill:#1B71B4;}
	.st10{fill:#12679E;}
	.st11{fill:#EFD6C4;}
	.st12{fill:#FFFFFD;}
	.st13{fill:none;stroke:#126FB7;stroke-linecap:round;stroke-linejoin:round;stroke-miterlimit:10;}
</style>
<g id="Calque_5">
	<rect class="st0" width="1280" height="331"/>
</g>
<g id="Calque_1">
	<polygon class="st1" points="1280,226.6 0,217.4 0,744 1280,744 	"/>
	<g>
		<path class="st2" d="M1212.8,195.7c0,0,19.2,40,20.2,77.4l-1.1,0c0,0-2.9-24.9-25.8-23.2c-15.3,1.1-22.9,13.5-20.9,28.6l-77.5,0.7
			c0,0,3-25.8-20.8-25.2c-22.7,1.3-19.4,25.6-19.4,25.6l-5.8-0.7c0,0,0.1-1.8,0.7-2.5c0,0-1.4-23.6,8.3-34
			c9.7-10.5,16.4-10.4,23.1-16.6c6.7-6.2,34.8-30.3,53.7-31.8C1166.4,192.3,1198.6,192.4,1212.8,195.7z"/>
		<circle class="st3" cx="1208.7" cy="273.2" r="18.1"/>
		<circle class="st3" cx="1088" cy="274.2" r="18.1"/>
		<circle class="st4" cx="1208.7" cy="273.2" r="14.7"/>
		<circle class="st4" cx="1088" cy="274.2" r="14.1"/>
		<circle class="st1" cx="1206.3" cy="232.7" r="5.7"/>
		<circle class="st5" cx="1206.3" cy="232.7" r="4.5"/>
		<path class="st3" d="M1223,221.6l-5.1,0l-9.8-20.7c-1-2.9,2.3-3.6,5.5-3.6C1213.6,197.3,1221.1,215.6,1223,221.6z"/>
		<path class="st4" d="M1185.5,219c0,0,0.2-17.9-12-18.8s-22-1.4-33.3,4.1c-11.3,5.5-25.8,14.1-26.6,23.4c-0.1,1.2-0.3,1.9,4.8,1.2
			S1183.7,221,1185.5,219z"/>
		<path class="st5" d="M1084.7,231.7c-0.5,7.8-8.8,15.9-17.4,15.9C1071.4,238.4,1084.7,231.7,1084.7,231.7z"/>
		<path class="st5" d="M1185.5,225.7c-0.1-2.9-0.9-3.4-3.5-3s-9.9,0.7-8.2,4.7L1185.5,225.7z"/>
	</g>
	<g>
		<path class="st2" d="M912.3,222.3c61,0.5,37.7-51.2,59.2-51.2s-1.8,51.6,53,51.6L912.3,222.3"/>
		<g>
			<path class="st2" d="M833,317.6c61,0.5,37.7-51.2,59.2-51.2c21.5,0-1.8,51,53,51L833,317.6"/>
			<path class="st1" d="M892.1,266.4l79.3-95.6c20.8-2.8,0.7,52.8,53,51.6l-62.8,94.4c0,0,15.9-0.5-19.4,0
				C892.1,317.2,912.3,266.4,892.1,266.4z"/>
			<path class="st2" d="M963.6,174.4c0,0,3-3.7,7.8-3.6l-79.3,95.6c-4.6-0.1-6.3,2.3-6.3,2.3L963.6,174.4z"/>
		</g>
	</g>
	<g>
		<g>
			<polygon class="st5" points="498.7,312.5 589.6,236.8 640.5,236.8 553.7,312.5 			"/>
		</g>
		<g>
			<polygon class="st5" points="569.6,312.5 654.9,236.8 711.4,236.8 624.6,312.5 			"/>
		</g>
		<g>
			<polygon class="st5" points="642.7,312.5 729.4,236.8 780.3,236.8 697.4,312.5 			"/>
		</g>
		<g>
			<polygon class="st5" points="714.6,312.5 798,236.8 848.9,236.8 771.7,312.5 			"/>
		</g>
		<path class="st2" d="M504.9,250c0,0,9.6-1.6,11.4,5.7h-11.4V250z"/>
		<path class="st2" d="M520,250c0,0,9.6-1.6,11.4,5.7H520V250z"/>
		<path class="st3" d="M530.4,110.6c4.3-7.7-0.8-20.3-15.3-20.2c-14.6,0.1-17.1,15.3-16.1,18.9c0,0,0.9,22.2,2.9,25.8l24.8-6.7
			c0,0,0.2-8.5-0.2-9.4L530.4,110.6z"/>
		<path class="st6" d="M512.5,127.6c-14.8,1.3-13.8,7.7-15.4,13.7c-0.6,2.4-3,19.2-3,19.2s6.3,14.2,23.3,17.1l2.1-2.6
			c-5.7-6-16.4-15.6-16.4-15.6l2-16.8c0,0-4.3,18.2-2.7,45.9l2.5,61.5h4.7l6.1-61l4.1,61h4.8c0,0,5.3-68.2,4.3-81.3l-0.8-40.2
			c-1.5-0.9-7.9-1.3-7.9-1.3C519.8,131,512.6,130.2,512.5,127.6z"/>
		<path class="st7" d="M520.3,127.3l-0.1-3.4c0,0,10.2-2.2,10.2-13.2c0.1-2.9-1.7-7.8-5.1-9.8c-2.6,5.6-11.9,9.9-17.5,9.2
			c-2-0.6-3.8,3.9,0.5,4.4c0,0-0.4,8,4.3,8.8v4.4C512.5,130.3,520.2,131.2,520.3,127.3z"/>
		<path class="st7" d="M517.1,177.3c2.6,3.2,0.1,9.7,6.8,11.8l-1.3-3.5c-0.7-1.7,2.5-3.9,4-1.3c0-5.9-6.4-6.8-7.8-8.7"/>
		<path class="st2" d="M519.5,115.5h-5.9c-0.8,0-1.4-0.6-1.4-1.4v-2c0-0.8,0.6-1.4,1.4-1.4h5.9c0.8,0,1.4,0.6,1.4,1.4v2
			C520.9,114.8,520.2,115.5,519.5,115.5z"/>
		<path class="st2" d="M530,115.5h-5.9c-0.8,0-1.4-0.6-1.4-1.4v-2c0-0.8,0.6-1.4,1.4-1.4h5.9c0.8,0,1.4,0.6,1.4,1.4v2
			C531.4,114.8,530.8,115.5,530,115.5z"/>
		<path class="st3" d="M519.2,109.8h-2.7c-0.1,0-0.2-0.1-0.2-0.2v-0.1c0-0.1,0.1-0.2,0.2-0.2h2.7c0.1,0,0.2,0.1,0.2,0.2v0.1
			C519.5,109.7,519.4,109.8,519.2,109.8z"/>
		<path class="st3" d="M527.2,109.8h-2.8c-0.1,0-0.2-0.1-0.2-0.2v-0.1c0-0.1,0.1-0.2,0.2-0.2h2.8c0.1,0,0.2,0.1,0.2,0.2v0.1
			C527.4,109.7,527.3,109.8,527.2,109.8z"/>
		<path class="st1" d="M528.2,128.6c6.4,3.3,8.1,14.5,0.9,49.1L528.2,128.6z"/>
		<path class="st2" d="M526.6,184.2c-0.9-2.3-4.7-1.3-4,1.3l29.7,70.2l1.4-0.5L526.6,184.2z"/>
		<path class="st8" d="M550.4,232.7c0-2.5-0.5-4.7-2.7-6.5"/>
		<path class="st8" d="M552.1,231.1c-0.1-1.9-0.5-3.6-2.2-5.1"/>
		<path class="st8" d="M548.5,231.9c-0.1-1.5-0.4-2.8-1.7-3.9"/>
		<path class="st8" d="M536.6,230.2c0,2.5,0.5,4.7,2.7,6.5"/>
		<path class="st8" d="M534.9,231.9c0.1,1.9,0.5,3.6,2.2,5.1"/>
		<path class="st8" d="M538.5,231c0.1,1.5,0.4,2.8,1.7,3.9"/>
		<rect x="520.2" y="112.3" class="st2" width="3" height="0.8"/>
	</g>
	<circle class="st3" cx="971.6" cy="135.1" r="7.4"/>
</g>
<g id="Calque_2">
</g>
<g id="Calque_3">
	<path class="st4" d="M0,702c245.3,0.3,960,1,1025.8,1.1c79.5,0.1,79.6-114.2,0.1-114.3c0,0-193.7-1.8-322.2-0.3
		c-76.6,0.9-76.6-96.3-2.7-96.3c98.7,0,103.7-110.2,0-103.7H0L0,702z"/>
	<path class="st5" d="M0,793.9c39.9,0,80.2-0.2,115.6-0.6c76.6-0.9,72.3,104.8-1.6,104.8c-98.7,0-104,122.9,2.5,122.9h998
		c84.5,0.1,86.2-112.8,0.1-112.9c0,0-110.1,1.5-226.8,0c-94.5-1.2-92.7-104.1,3.4-104c104.3,0.1,79.6-124.1,10.1-124.2
		c0,0-578.5-0.6-901.3-0.9L0,793.9z"/>
	<g>
		<path class="st6" d="M74.6,633.7c0,0-8.7,18.8-8.9,36.3l0.5,0c0,0,1.2-11.6,11.9-11c7.2,0.4,10.8,6.1,10,13.2l36.2-0.3
			c0,0-1.6-12,9.5-11.9c10.6,0.4,9.2,11.8,9.2,11.8l2.7-0.4c0,0-0.1-0.8-0.3-1.2c0,0,0.5-11-4.1-15.8c-4.6-4.8-7.7-4.7-10.9-7.6
			s-16.5-13.9-25.3-14.4S81.2,632,74.6,633.7z"/>
		<circle class="st2" cx="77.1" cy="669.8" r="8.5"/>
		<circle class="st2" cx="133.4" cy="669.4" r="8.5"/>
		<circle class="st5" cx="77.1" cy="669.8" r="6.9"/>
		<circle class="st5" cx="133.4" cy="669.4" r="6.6"/>
		<circle class="st1" cx="77.9" cy="650.9" r="2.7"/>
		<circle class="st5" cx="77.9" cy="650.9" r="2.1"/>
		<path class="st3" d="M70,645.8l2.4,0l4.4-9.7c0.4-1.4-1.1-1.7-2.6-1.6C74.2,634.4,70.9,643,70,645.8z"/>
		<path class="st4" d="M87.5,644.3c0,0-0.2-8.4,5.5-8.8c5.7-0.5,10.3-0.8,15.6,1.7s12.1,6.4,12.6,10.7c0.1,0.6,0.2,0.9-2.3,0.6
			C116.5,648.2,88.4,645.2,87.5,644.3z"/>
		<path class="st5" d="M134.7,649.5c0.3,3.6,4.2,7.3,8.2,7.3C140.9,652.5,134.7,649.5,134.7,649.5z"/>
		<path class="st5" d="M87.6,647.4c0-1.4,0.4-1.6,1.6-1.4c1.2,0.2,4.6,0.2,3.9,2.1L87.6,647.4z"/>
	</g>
	<g>
		<path class="st7" d="M411.4,765.2c0,0,2.8,22.1,0,25.5c-2.8,3.4-6.6,12.1-2.4,19.7c4.1,7.6,1.7,23.5-6.2,32.8
			c-7.9,9.3-3.8,18.6-13.8,27.9c-10,9.3-2.8,14.1-34.2,5.2s-51.4-31-51.4-50c0,0-22.1-4.1-22.1-25.5c0-5.2,8.6-19.3,19-10
			c10.3,9.3,28.5-27.9,28.5-27.9S387.4,752.4,411.4,765.2z"/>
		<path d="M331,756.5c-1.8,13.5-22,39.3-28.9,35.3c-6.9-4-8.9-7.4-17,0.4c-8.1,7.8-3.1,25.2,11.2,31.5c0,0,6.8,21.4,4.5,28.7
			c0,0-15.3-14.9-25.6-9.5c-10.3,5.4-11.6,13.1-11.6,13.1c-7.8-33,6.1-68.5,6.1-68.5l3.2-28.3L331,756.5z"/>
		<path class="st1" d="M417.6,752.4c0,0-2-12.1-5-12.1s-0.2-31.4-11.9-35.9c-11.7-4.5-94.6-13.5-122.5,19c-2.1,2.4-1.7,11-1.7,11
			s-16.2,4.5-14.1,15.5s4.5,34.2,7.2,37.6c0,0,2.4-11.7,61.1-25.9c53.5-7.2,80.7,3.4,80.7,3.4s2.4,10.4,1.2,17.9
			c0,0,33.6-13.5,36.4-20.4c2.8-6.9-9.3-16.9-22.1-12.8L417.6,752.4z"/>
		<path class="st9" d="M378.6,759.3c-27.9-7.1-53.8-42.8-102.1-24.9c-3.7,1.4-17.3,5.8-13.8,17.4c0,0,2.8,28.2,6.9,35.8
			C279.2,774.8,329.6,756.9,378.6,759.3z"/>
		<path class="st9" d="M397.5,761.7c23.5,0.7,49.8,7.5,51.5-3.2c4.6,12.3-36.4,24.6-36.4,24.6s0-12.8-1.2-17.9
			C411.4,765.2,401.8,762.3,397.5,761.7z"/>
		<path class="st10" d="M412.6,740.3c-20.5-8.1-59.7-11.6-83.8-5.3c0,0,30.8,16.6,36.6,19.1c18.4-0.4,52.4,8.7,52.4,8.7
			C417.8,740.4,412.6,740.3,412.6,740.3z"/>
		<path class="st11" d="M486.6,869.2c0,0-2.9-1.2-3.3-7.1c-0.3-5.9-3.3-36.9-5.2-39.2c-1.9-2.2-10.3-22.3-15.7-23
			c-5.3-0.8-17.5-12.1-22.9-10.1s-7.8-11.4-14.5-4.1c0,0-8.3-5.9-7.2,4.2l7.8,22.9c0,0,0.2,5.8-1,7.4s0.6,22.4,1,27.1
			c0.7,7.9,21.7,32.8,21.7,32.8S487.3,873.3,486.6,869.2z"/>
		<path class="st7" d="M467.4,875.9c-0.9-24.2-6.3-37.9-27.5-39.4c0,0-1-29.5-7.2-30.6c0,0-14.5-11.7-8,3.9c0,0,2.8,3.4,0,10.4
			c-1.4,17.4-0.5,28,5.4,36.7c6,8.7,17.3,23.2,17.3,23.2S461.8,877.3,467.4,875.9z"/>
		<path class="st10" d="M394.2,789.6c0,0-3.9-1-6.7,0c0,0-7.7-7.9-31.8-6.6l-39-0.2l-1.7,1.9l40.6,0.1c4.2,0.1,17.5-0.1,20.6,2.7
			c0,0-23.5-1.8-26,1.2s-2.1,9.1,0,9.2c0,0-0.9,12.1,4.7,13.3c5.6,1.2,21.2,5.6,25.2-1.9s4.9-12.2,7.1-13.1c2.2-0.9,4.2,2.2,3.7,7.2
			s-0.3,12.2,8.5,12.6c8.7,0.4,21.1,3.9,23.8-10.3c0,0,15.8,1.2,17.7-2.1c1.9-3.3,1.2-9-2.8-8.8s-0.9-4.5-11.6-4.5
			S402.8,787.4,394.2,789.6z"/>
		<path d="M377.2,779.9c-3.4-6.2-23.3-5.6-32.3,0C344.8,779.9,373.8,781.6,377.2,779.9z"/>
		<path d="M412.6,780.7c-2.2-1.7-13.3-2.3-16.4,2.4l16.4,1.1V780.7z"/>
		<path class="st11" d="M390.2,850.5c3.5-1.9-0.3-8.3-5.2-2.6c0,0-3.8-4.9-10-0.4c-6.2,4.5-12.9,1.7-12.9,1.7
			c3.8,2.8,15,2.8,19.3,3.2C385.7,852.7,388.8,851.2,390.2,850.5z"/>
		<path class="st11" d="M388.6,850.8c-1.4,4-2.7,7-13.3,5.6c-7.3-0.4-14.7-8.1-13.1-7.3C368.9,852.5,386.9,852.1,388.6,850.8z"/>
		<path class="st1" d="M412.6,908.5l60.7,18.5l7.6,94.4H185c-1.7-23.7,7.9-90.3,13.8-95.8l52.1-33.1L412.6,908.5z"/>
		<path class="st10" d="M483.3,862.1c5.8-0.5,10.6,0.2,3.3,7.1C484,865.9,483.3,862.1,483.3,862.1z"/>
		<path class="st6" d="M446.3,878.6c-4.4,3.6,1.7,13.6,5.9,16.7c-1.5,4.5-0.3,5.5,9.2,25.7c0,0-4.3,18.6,9.7,28.3v32.3l9.9,39.8
			h83.7c0.5-20.1-4.9-21.9-5.2-26.6s1-40.4-17.6-52c-2.8-1.3-7.8-13.5-8-25.9c-0.3-12.4-14.8-23.4-23.5-21.7l-27-23.5
			C483.3,871.7,445.6,882.5,446.3,878.6z"/>
		<path class="st1" d="M490.3,862c7.4,5.1,8.4,19,20,33.3c-19.7,5.4-32.5-1-28.7-22.9C481.6,872.3,490.1,869.1,490.3,862z"/>
		<circle class="st5" cx="468.8" cy="892.5" r="4.5"/>
		
			<ellipse transform="matrix(0.8221 -0.5693 0.5693 0.8221 -418.0951 437.832)" class="st5" cx="491.6" cy="888" rx="3.6" ry="5.7"/>
		<path class="st9" d="M495.6,958.3c4.6,3.9,10.5,11.4,2.8,23.5l-25.1,39.5h-60.7l29.5-55.7c2.5-5.5,5.1-7.4,11.3-7.4
			C459.6,958.3,487.9,958.1,495.6,958.3z"/>
		<path class="st5" d="M421.5,1021.4l26.1-46.5c3.1-6.2,3.1-6.2,16.5-5.7l28.7-0.1c4.7,0,7.6,2.4,2.6,9.4l-26.8,42.9H421.5z"/>
		<path class="st7" d="M391.6,1021.4l11.6-16c2.3-2.8,2.5-4.7,9.4-9.1c6.9-4.4,10-9.4,11.8-1.2c1.8,8.2-11.8,26.2-11.8,26.2H391.6z"
			/>
		<path class="st7" d="M448.7,1021.4c8-9.2,22.3-18.6,28.8-13.9c1.8,1.8-2.9,8.4-11.2,13.9H448.7z"/>
		<path class="st7" d="M471.7,1021.4c4.8-5.2,10.9-11.1,16-7.6c2.1,1.2-4.5,7.6-4.5,7.6H471.7z"/>
		<path class="st10" d="M300.7,852.4c20.4,13.8,21,21.2,31.6,27.1c10.6,5.9,48.9,21.2,44.6,36.7c-4.2,15.5-18.5,51.7-50,34.9
			s-78.7-49.4-79.7-68.8c2.6-16.7,16.3-26.2,16.3-26.2S274.6,827.2,300.7,852.4z"/>
		<path class="st10" d="M391.6,868c8.5,11.9,7.7,24.3,16.5,34.2s32.4,55.8-3.7,71.9c-4.1,1.8-12.7,10.1-20.4-39.3
			c-1-6.7-28-36-23-56.8c0,0,12.4,3.8,17.6,3c5.2-0.8,6.6-8.5,10.3-9.9L391.6,868z"/>
		<path class="st11" d="M361,878c-0.9,5.6-0.4,8.1,1.3,17.7c-25-15.6-32-13.3-44.9-29.6c-11.9-10.2-16.7-13.6-16.7-13.6
			c1.1-10.3-3-22.4-4.5-28.7c0,0,5.6,2.2,7.2,2.5C305.1,842.1,315.1,864.1,361,878z"/>
		<path class="st6" d="M274.4,889.4l1.7,15.5l-58.3,34.8c-4.1-6.6-20-15.6-24.5-17.8l60-33.9L274.4,889.4z"/>
		<ellipse transform="matrix(0.5387 -0.8425 0.8425 0.5387 -631.3718 636.8707)" class="st5" cx="265.9" cy="895" rx="3" ry="5.3"/>
		<path class="st5" d="M242,982.7c-6.7-8-38.2-15.6-53.6,9.3c-2.7,4.4,0,29.4,0,29.4h47.4l3.9-7.6L242,982.7z"/>
		<path class="st9" d="M349.9,993.5c0,0-49.2,8-58.2,7.2c-9.1-0.8-15.3-3.9-18.6-2.6c0,15.5,24,34.4,87.4,18.9
			C360.4,1017.1,350.6,1000.3,349.9,993.5z"/>
		<ellipse class="st5" cx="317.6" cy="1017.1" rx="5.4" ry="4.3"/>
		<path class="st6" d="M296,923.9l-21.2,11.4c-7.5,4.1-3.4,9.2,2.6,20.1l16.6,29.3c2.1,4.1,5.4,13.2,16.6,5.1l20.4-12.3
			c4.8-2.5-1.6-10.6-6.7-19.3l-17.6-30.4C303.8,922.6,302.5,920.1,296,923.9z"/>
		<path class="st1" d="M423.2,794.5c1,5.3-3.2,19.9-10.6,19.9c-7.4,0-18.5,0.8-19.2-6.3c-0.7-7.1-0.9-16.9,2.8-16.9
			C401.5,791.2,422.4,790.3,423.2,794.5z"/>
		<ellipse class="st1" cx="439.3" cy="799.9" rx="1.7" ry="3.6"/>
		<path class="st1" d="M383.5,793.7c-1.8,7.1-3.5,17.3-9.7,17.6c-6.6,0.3-20.4,0.2-20.7-5.7c-0.2-3.9-2.5-15.7,0.8-16
			C357.1,789.1,385.6,788.2,383.5,793.7z"/>
	</g>
</g>
<g id="Calque_4">
	<g>
		<polygon class="st12" points="274.6,546.8 348,546.8 348,501.1 311.3,469.7 274.6,500.2 		"/>
		<polygon class="st3" points="274.6,500.2 274.6,497.1 311.3,467.1 348,497.6 348,501.1 311.3,469.7 		"/>
		<circle class="st2" cx="311.5" cy="496.1" r="7.7"/>
		<rect x="286.9" y="517.9" class="st6" width="8.2" height="8.2"/>
		<rect x="286.9" y="527.7" class="st6" width="8.2" height="8.2"/>
		<rect x="297" y="517.9" class="st6" width="8.2" height="8.2"/>
		<rect x="297" y="527.7" class="st6" width="8.2" height="8.2"/>
		<rect x="312.2" y="517.9" class="st6" width="10.9" height="28.8"/>
		<rect x="324.8" y="517.9" class="st6" width="10.9" height="28.8"/>
		<polygon class="st2" points="192.8,548.1 266.2,548.1 266.2,502.4 229.5,471 192.8,501.6 		"/>
		<polygon class="st12" points="192.8,501.6 192.8,498.4 229.5,468.4 266.2,498.9 266.2,502.4 229.5,471 		"/>
		<circle class="st3" cx="229.7" cy="497.4" r="7.7"/>
		<rect x="205.1" y="519.2" class="st6" width="8.2" height="8.2"/>
		<rect x="205.1" y="529" class="st6" width="8.2" height="8.2"/>
		<rect x="215.2" y="519.2" class="st6" width="8.2" height="8.2"/>
		<rect x="215.2" y="529" class="st6" width="8.2" height="8.2"/>
		<rect x="230.4" y="519.2" class="st6" width="10.9" height="28.8"/>
		<rect x="243" y="519.2" class="st6" width="10.9" height="28.8"/>
		<polygon class="st6" points="355.4,548.1 428.9,548.1 428.9,502.4 392.2,471 355.4,501.6 		"/>
		<polygon class="st2" points="355.4,501.6 355.4,498.4 392.2,468.4 428.9,498.9 428.9,502.4 392.2,471 		"/>
		<circle class="st12" cx="392.4" cy="497.4" r="7.7"/>
		<rect x="367.7" y="519.2" class="st3" width="8.2" height="8.2"/>
		<rect x="367.7" y="529" class="st3" width="8.2" height="8.2"/>
		<rect x="377.9" y="519.2" class="st3" width="8.2" height="8.2"/>
		<rect x="377.9" y="529" class="st3" width="8.2" height="8.2"/>
		<rect x="393" y="519.2" class="st3" width="10.9" height="28.8"/>
		<rect x="405.6" y="519.2" class="st3" width="10.9" height="28.8"/>
	</g>
	<g>
		<path class="st5" d="M349.4,424c0,0-54.4,120.6,0,120.6C400.6,544.6,349.4,424,349.4,424z"/>
		<polyline class="st13" points="348.7,569.5 348.7,506 340.2,493.5 		"/>
		<line class="st13" x1="348.7" y1="528.5" x2="357.9" y2="515.8"/>
		<line class="st13" x1="348.7" y1="506" x2="357.9" y2="493.5"/>
	</g>
	<g>
		<path class="st5" d="M478.9,458c0,0-41.2,91.5,0,91.5C517.7,549.5,478.9,458,478.9,458z"/>
		<polyline class="st13" points="478.3,568.3 478.3,520.2 471.9,510.7 		"/>
		<line class="st13" x1="478.3" y1="537.3" x2="485.3" y2="527.6"/>
		<line class="st13" x1="478.3" y1="520.2" x2="485.3" y2="510.7"/>
	</g>
</g>
</svg>
