<?xml version="1.0" encoding="utf-8"?>
<!-- Generator: Adobe Illustrator 22.0.1, SVG Export Plug-In . SVG Version: 6.00 Build 0)  -->
<svg version="1.1" xmlns="http://www.w3.org/2000/svg" xmlns:xlink="http://www.w3.org/1999/xlink" x="0px" y="0px"
	 viewBox="0 0 1280 1024" style="enable-background:new 0 0 1280 1024;" xml:space="preserve">
<style type="text/css">
	.st0{fill:#EAF2F4;}
	.st1{fill:#FFFFFD;}
	.st2{fill:#EDC600;}
	.st3{fill:#126FB7;}
	.st4{fill:#52C1E9;}
	.st5{fill:#83CEE2;}
	.st6{fill:#C3E5F4;}
	.st7{fill:none;stroke:#126FB7;stroke-linecap:round;stroke-linejoin:round;stroke-miterlimit:10;}
	.st8{fill:#1496D1;}
	.st9{fill:none;stroke:#EDC600;stroke-width:2;stroke-linecap:round;stroke-linejoin:round;stroke-miterlimit:10;}
</style>
<g id="Calque_4">
	<rect x="-4" y="-5" class="st0" width="1289" height="678"/>
</g>
<g id="Calque_3">
	<g>
		<polygon class="st1" points="1000.6,600.9 1108.4,600.9 1108.4,533.9 1054.5,487.8 1000.6,532.7 		"/>
		<polygon class="st2" points="1000.6,532.7 1000.6,528 1054.5,483.9 1108.4,528.8 1108.4,533.9 1054.5,487.8 		"/>
		<circle class="st3" cx="1054.8" cy="526.6" r="11.3"/>
		<rect x="1018.7" y="558.6" class="st4" width="12.1" height="12.1"/>
		<rect x="1018.7" y="572.9" class="st4" width="12.1" height="12.1"/>
		<rect x="1033.5" y="558.6" class="st4" width="12.1" height="12.1"/>
		<rect x="1033.5" y="572.9" class="st4" width="12.1" height="12.1"/>
		<rect x="1055.8" y="558.6" class="st4" width="16" height="42.3"/>
		<rect x="1074.3" y="558.6" class="st4" width="16" height="42.3"/>
		<polygon class="st3" points="880.6,602.9 988.4,602.9 988.4,535.8 934.5,489.7 880.6,534.6 		"/>
		<polygon class="st1" points="880.6,534.6 880.6,529.9 934.5,485.9 988.4,530.7 988.4,535.8 934.5,489.7 		"/>
		<circle class="st2" cx="934.8" cy="528.5" r="11.3"/>
		<rect x="898.6" y="560.5" class="st4" width="12.1" height="12.1"/>
		<rect x="898.6" y="574.8" class="st4" width="12.1" height="12.1"/>
		<rect x="913.5" y="560.5" class="st4" width="12.1" height="12.1"/>
		<rect x="913.5" y="574.8" class="st4" width="12.1" height="12.1"/>
		<rect x="935.7" y="560.5" class="st4" width="16" height="42.3"/>
		<rect x="954.3" y="560.5" class="st4" width="16" height="42.3"/>
		<polygon class="st4" points="1119.3,602.9 1227.1,602.9 1227.1,535.8 1173.2,489.7 1119.3,534.6 		"/>
		<polygon class="st3" points="1119.3,534.6 1119.3,529.9 1173.2,485.9 1227.1,530.7 1227.1,535.8 1173.2,489.7 		"/>
		<circle class="st1" cx="1173.5" cy="528.5" r="11.3"/>
		<rect x="1137.4" y="560.5" class="st2" width="12.1" height="12.1"/>
		<rect x="1137.4" y="574.8" class="st2" width="12.1" height="12.1"/>
		<rect x="1152.2" y="560.5" class="st2" width="12.1" height="12.1"/>
		<rect x="1152.2" y="574.8" class="st2" width="12.1" height="12.1"/>
		<rect x="1174.5" y="560.5" class="st2" width="16" height="42.3"/>
		<rect x="1193" y="560.5" class="st2" width="16" height="42.3"/>
	</g>
	<g>
		<polygon class="st1" points="139.6,654.9 247.4,654.9 247.4,587.9 193.5,541.8 139.6,586.7 		"/>
		<polygon class="st2" points="139.6,586.7 139.6,582 193.5,537.9 247.4,582.8 247.4,587.9 193.5,541.8 		"/>
		<circle class="st3" cx="193.8" cy="580.6" r="11.3"/>
		<rect x="157.7" y="612.6" class="st4" width="12.1" height="12.1"/>
		<rect x="157.7" y="626.9" class="st4" width="12.1" height="12.1"/>
		<rect x="172.5" y="612.6" class="st4" width="12.1" height="12.1"/>
		<rect x="172.5" y="626.9" class="st4" width="12.1" height="12.1"/>
		<rect x="194.8" y="612.6" class="st4" width="16" height="42.3"/>
		<rect x="213.3" y="612.6" class="st4" width="16" height="42.3"/>
		<polygon class="st3" points="19.6,656.9 127.4,656.9 127.4,589.8 73.5,543.7 19.6,588.6 		"/>
		<polygon class="st1" points="19.6,588.6 19.6,583.9 73.5,539.9 127.4,584.7 127.4,589.8 73.5,543.7 		"/>
		<circle class="st2" cx="73.8" cy="582.5" r="11.3"/>
		<rect x="37.6" y="614.5" class="st4" width="12.1" height="12.1"/>
		<rect x="37.6" y="628.8" class="st4" width="12.1" height="12.1"/>
		<rect x="52.5" y="614.5" class="st4" width="12.1" height="12.1"/>
		<rect x="52.5" y="628.8" class="st4" width="12.1" height="12.1"/>
		<rect x="74.7" y="614.5" class="st4" width="16" height="42.3"/>
		<rect x="93.3" y="614.5" class="st4" width="16" height="42.3"/>
		<polygon class="st4" points="258.3,656.9 366.1,656.9 366.1,589.8 312.2,543.7 258.3,588.6 		"/>
		<polygon class="st3" points="258.3,588.6 258.3,583.9 312.2,539.9 366.1,584.7 366.1,589.8 312.2,543.7 		"/>
		<circle class="st1" cx="312.5" cy="582.5" r="11.3"/>
		<rect x="276.4" y="614.5" class="st2" width="12.1" height="12.1"/>
		<rect x="276.4" y="628.8" class="st2" width="12.1" height="12.1"/>
		<rect x="291.2" y="614.5" class="st2" width="12.1" height="12.1"/>
		<rect x="291.2" y="628.8" class="st2" width="12.1" height="12.1"/>
		<rect x="313.5" y="614.5" class="st2" width="16" height="42.3"/>
		<rect x="332" y="614.5" class="st2" width="16" height="42.3"/>
	</g>
</g>
<g id="Calque_1">
	<polygon class="st5" points="1280,565.9 0,656.3 0,1032.4 1279.3,1025.9 	"/>
</g>
<g id="Calque_2">
	<g>
		<path class="st6" d="M1028.1,463.8c0,0-47,104.2,0,104.2C1072.3,568,1028.1,463.8,1028.1,463.8z"/>
		<polyline class="st7" points="1027.5,589.5 1027.5,534.7 1020.2,523.8 		"/>
		<line class="st7" x1="1027.5" y1="554.1" x2="1035.5" y2="543.1"/>
		<line class="st7" x1="1027.5" y1="534.7" x2="1035.5" y2="523.8"/>
	</g>
	<g>
		<path class="st4" d="M541.3,706.6c-4,5.1-74,17.9-103.9-12.4h5.4v-170l22.9-25.5l167.6,7.5l10.8,21.6l2.8,142.9
			c0,0-8.5,8.5-10.6,10.9L541.3,706.6z"/>
		<path class="st8" d="M452.3,526.9v171.2c0,0,36.3,18.7,78.5,5.1l-0.8-178.7C529.9,524.5,464.7,523.7,452.3,526.9z"/>
		<path class="st6" d="M415.9,475.8c47.4-14.7,117.8-8.6,132.5-6.3c13.7,2.2,118,19.9,109.9,31.7c-1.8,4.3-13,7.4-12.3,12
			c0,0,2,3.3-1.8,14.6l-114.2-8.7c-23.8-1.3-81.5,0.3-87.1,5.1c-1.3-15.3-3.1-20.9-17.1-25.3c-14.1-4.3-18.5-10.5-16.6-16.4
			C410.1,479.5,413.6,476.5,415.9,475.8z"/>
		<path class="st4" d="M409.4,488.4c7.4-9.7,13.1-10.2,29.2-13.6c16.6-3.4,81.8-7.2,122.1,1c40,8.1,94,17.1,97,26.2
			c5.5-4.9-9.8-12-47-20.4c-37.5-8.5-64.3-13.9-96.3-15.5c-33.8-1.7-85,1.6-101.4,11.2C408.8,479.9,407.6,484.1,409.4,488.4z"/>
		<path class="st8" d="M550.9,496.9c-6.1-0.6-11,5.5-9.6,30.9v178.8l95.1-25c0,0,9.2-9.9,10.6-10.9L643.9,531
			c1.4-6.8,4.8-11.8,2-17.8C638.5,510.1,550.9,496.9,550.9,496.9z"/>
		<rect x="555.6" y="556.9" class="st3" width="2.7" height="67.4"/>
		<path class="st8" d="M447,624.4h-2.8c-0.8,0-1.4-0.6-1.4-1.4v-63.3c0-0.8,0.6-1.4,1.4-1.4h2.8c0.8,0,1.4,0.6,1.4,1.4V623
			C448.4,623.7,447.8,624.4,447,624.4z"/>
		<path class="st3" d="M437,504.9h-5c0,0,6.4,17.7,5.4,28v161.3h5.4v-170C443.2,512,437,504.9,437,504.9z"/>
		<path class="st3" d="M546,498.4c-0.6,6.5,0,207,0,207l-4.7,1.2l-0.2-184.5C541.2,505.7,541.3,503,546,498.4z"/>
		<polygon class="st3" points="558.4,556.9 628.5,559.3 628.5,617.6 558.4,624.4 		"/>
		<polygon class="st6" points="560.8,561.5 560.8,619.6 625.1,614.5 625.1,563.4 		"/>
		<polygon class="st3" points="555.6,521.1 555.9,545.7 626.8,549.4 626.5,530.9 		"/>
		<g>
			<polygon class="st3" points="479.5,555.6 487.7,555.6 486.1,562.7 486.1,567.3 480.8,567.3 480.9,562.7 			"/>
			<circle class="st3" cx="483.6" cy="551.2" r="2"/>
			<circle class="st3" cx="492.8" cy="551.2" r="2"/>
			<polygon class="st3" points="490.6,555.6 495,555.6 496.9,564.5 494.5,564.5 493.8,567.2 491.7,567.2 491.1,564.5 488.8,564.5 
							"/>
		</g>
		<circle class="st2" cx="534.9" cy="443.4" r="4.4"/>
		<path class="st9" d="M525.7,436.3c4.3-7.1,13.4-6.9,18.4,0"/>
		<path class="st9" d="M518.8,431.1c7.6-12.3,23.4-12.1,32.2,0"/>
		<path class="st9" d="M512.6,425c10.5-17.1,32.4-16.7,44.5-0.1"/>
	</g>
	<g>
		<path class="st6" d="M741.2,256.9v22.6c0,0,35.4-0.9,41.3,0v-22.6H741.2z"/>
		<path class="st4" d="M741.2,279.5l9.8,17.5h21.7l9.8-17.5C782.6,279.5,759.1,278,741.2,279.5z"/>
		<polygon class="st8" points="751.1,297 751.1,356.5 772.2,356.5 772.8,297 		"/>
		<rect x="729.3" y="244.1" class="st3" width="65.7" height="3"/>
		<rect x="732.9" y="255.5" class="st3" width="58.6" height="1.8"/>
		<rect x="739.7" y="247.1" class="st8" width="44.5" height="8.4"/>
		<polygon class="st4" points="751.1,356.5 757,365.1 767.1,365.1 772.2,356.5 		"/>
		<rect x="757" y="365.1" class="st6" width="9.8" height="359.4"/>
		<path class="st8" d="M713.3,356.5c-0.1-14.3,34.2-15.5,34.2,0H713.3z"/>
		<rect x="713.3" y="356.5" class="st4" width="34.2" height="11.9"/>
		<rect x="722.5" y="368.4" class="st8" width="15.8" height="13.1"/>
		<rect x="722.5" y="381.5" class="st6" width="15.8" height="30.6"/>
		<rect x="772.5" y="328.2" class="st6" width="10.1" height="4.2"/>
		<rect x="782.6" y="328.2" class="st3" width="21" height="14.6"/>
		<polygon class="st4" points="782.6,342.8 780.8,348.2 805.5,348.2 803.7,342.8 		"/>
		<rect x="780.8" y="348.2" class="st8" width="24.7" height="23.8"/>
	</g>
	<circle class="st2" cx="525.8" cy="368.6" r="8.8"/>
	<circle class="st2" cx="761.8" cy="194.6" r="8.8"/>
	<g>
		<circle class="st8" cx="91.5" cy="606.5" r="32.6"/>
		<polyline class="st7" points="91.5,665.1 91.5,613.9 82.6,603.7 		"/>
		<line class="st7" x1="91.5" y1="613.2" x2="101.2" y2="599.7"/>
	</g>
	<g>
		<path class="st6" d="M209,557.3c0,0-36.3,80.6,0,80.6C243.1,637.9,209,557.3,209,557.3z"/>
		<polyline class="st7" points="208.5,654.5 208.5,612.1 202.9,603.7 		"/>
		<line class="st7" x1="208.5" y1="627.1" x2="214.7" y2="618.6"/>
		<line class="st7" x1="208.5" y1="612.1" x2="214.7" y2="603.7"/>
	</g>
	<g>
		<path class="st6" d="M158.9,573.7c0,0-34,75.3,0,75.3C190.9,649,158.9,573.7,158.9,573.7z"/>
		<polyline class="st7" points="158.5,664.5 158.5,624.9 153.2,617 		"/>
		<line class="st7" x1="158.5" y1="638.9" x2="164.3" y2="630.9"/>
		<line class="st7" x1="158.5" y1="624.9" x2="164.3" y2="617"/>
	</g>
</g>
<g id="Calque_5">
	<path class="st6" d="M172.8,267h92.8c0,0-3.7-14.5-14.6-7.2c-6.7-27.7-45.8-21.9-46.7-2C199.3,244,174.5,247.4,172.8,267z"/>
	<path class="st6" d="M402.3,233H543c0,0-5.6-21.9-22.1-11c-10.1-41.9-69.4-33.2-70.7-3.1C442.3,198.2,404.8,203.3,402.3,233z"/>
	<path class="st6" d="M926.2,300.5H1047c0,0-4.8-18.8-19-9.4c-8.7-36-59.6-28.5-60.7-2.6C960.6,270.6,928.4,275.1,926.2,300.5z"/>
</g>
</svg>
