<?xml version="1.0" encoding="utf-8"?>
<!-- Generator: Adobe Illustrator 22.0.1, SVG Export Plug-In . SVG Version: 6.00 Build 0)  -->
<svg version="1.1" xmlns="http://www.w3.org/2000/svg" xmlns:xlink="http://www.w3.org/1999/xlink" x="0px" y="0px"
	 viewBox="0 0 1280 1024" style="enable-background:new 0 0 1280 1024;" xml:space="preserve">
<style type="text/css">
	.st0{fill:#EAF2F4;}
	.st1{fill:#EDC600;}
	.st2{fill:#1496D1;}
	.st3{fill:#E4ECEF;}
	.st4{fill:#1B71B4;}
	.st5{fill:#C3E5F4;}
	.st6{fill:#12679E;}
	.st7{fill:#52C1E9;}
</style>
<g id="Calque_2">
	<rect class="st0" width="1280" height="1024"/>
</g>
<g id="Calque_1">
	<circle class="st1" cx="782.4" cy="312.4" r="8.8"/>
	<g>
		<path class="st2" d="M499.7,323c-8.8,10.7-8,19.9-8,57.4c0,6.4,5,27.8,4,45.4H518l11.6-45.4L499.7,323z"/>
		<path class="st3" d="M500,385.6c0,0-4-65.6,2.8-76.6c6.8-11.1,11.1-20.9,28.1-22.6c20.4,0,20-10.6,36.2-8.9s22.1,2.1,24.2,11.9
			c7.4,3.3,146.1,3.4,172.9,128.6c2.6,16.6-0.4,29.4-15.8,41.3l-2.1,5.5c0,0-91.1,2.6-135.8-8.1c0,0-87.3-14.1-91.3-19.2
			C519.1,437.6,519.1,406.1,500,385.6z"/>
		<path class="st2" d="M574.1,323c-24.3-12.1-54.9-25.5-54.9-12.1s-0.6,45.3,7,49.8c7.7,4.5,57.5,30,60.7,31.3
			c3.2,1.3,2.6-1.3,0-12.1C584.3,369,574.1,323,574.1,323z"/>
		<path class="st2" d="M600.3,338.4c-5.7-4.5-10.9-5.7-8.3,4.5c2.6,10.2,16.6,60.2,16.6,60.2s56.8,22.2,59.4,22.2
			c2.6,0,15.3,4.5,7-9.6S600.3,338.4,600.3,338.4z"/>
		<path class="st4" d="M567.1,297.5c12.1,5.1,26.2,8.9,31.3,17.9c4.5,4.2,56.8,25.5,103.5,99.6c3.5,10.9,58.1,9.1,55.2-1.9
			C757.2,392.3,710.1,284.4,567.1,297.5z"/>
		<rect x="911.7" y="480.7" class="st4" width="13.3" height="5.4"/>
		<rect x="905.5" y="437.1" class="st4" width="25.6" height="13.6"/>
		<rect x="905.5" y="467.1" class="st4" width="25.6" height="13.6"/>
		<rect x="903.7" y="450.7" class="st5" width="29.4" height="8.3"/>
		<rect x="903.7" y="459" class="st5" width="29.4" height="8.1"/>
		
			<rect x="320.1" y="411.7" transform="matrix(0.9992 3.888295e-02 -3.888295e-02 0.9992 16.3565 -12.3863)" class="st4" width="13" height="5.3"/>
		
			<rect x="317.8" y="459.5" transform="matrix(0.9992 3.888295e-02 -3.888295e-02 0.9992 18.2152 -12.2597)" class="st4" width="13" height="5.3"/>
		
			<rect x="313.3" y="416.9" transform="matrix(0.9992 3.888295e-02 -3.888295e-02 0.9992 16.7154 -12.3473)" class="st4" width="25" height="13.3"/>
		
			<rect x="312.1" y="446.2" transform="matrix(0.9992 3.888295e-02 -3.888295e-02 0.9992 17.8553 -12.2807)" class="st4" width="25" height="13.3"/>
		
			<rect x="311" y="430.2" transform="matrix(0.9992 3.888295e-02 -3.888295e-02 0.9992 17.1313 -12.323)" class="st5" width="28.7" height="8.1"/>
		
			<rect x="310.7" y="438.3" transform="matrix(0.9992 3.888295e-02 -3.888295e-02 0.9992 17.4433 -12.3047)" class="st5" width="28.7" height="7.9"/>
		<path class="st6" d="M495.7,425.9c-0.6,10.4,1.6,16.4-15.5,16.8c-17,0.4-23.8,0-23.8,0v27.7c0,0,157.8,23.4,175.6,24.7
			c17.8,1.3,100.8,1.7,100.8,1.7s19.2-11.5,13.6-31.9l-235.7-49L495.7,425.9z"/>
		<path class="st2" d="M456.4,447.2l-116.7-14.7l-0.5,11.4c16.4-0.2,117.1,23.7,117.1,23.7V447.2z"/>
		<path class="st4" d="M748.5,459.3c0,0,21.2-0.3,30.3-0.3c4.5,0,6.1,27.2-2.6,28.6c-8.6,1.5-35.7,2.2-35.7,2.2l5.1-30.5
			L748.5,459.3z"/>
		<path class="st2" d="M781.1,461.9l114.6-7.1v12.3c-23,0-98.4,17.4-115.6,17.4L781.1,461.9z"/>
		<rect x="895.7" y="451.9" class="st5" width="8" height="16.4"/>
		<path class="st2" d="M715.2,496.8l17.5,39.2h12.8c0-14.5-5-33.6-5-46.1L715.2,496.8z"/>
		<path class="st7" d="M622.9,494.1v51.2c11.5-5.5,15.3-9.1,15.3-49.9L622.9,494.1z"/>
		<path class="st2" d="M491.7,475.6l-8.1,37.3c0,0-0.9,4.8,10.6,4.8l20.9-39.2L491.7,475.6z"/>
		<path class="st7" d="M483.6,512.9c-16.2,11.6,120.1,38,139.3,32.4v-6.4c0,0-29.8-1.3-33.8-3c-4.1-1.7-2.4-6.8-16.4-8.9
			c-14.1-2.1-66.4-11.9-66.4-11.9c-4.3-0.9-6.6,3-11.9,2.6L483.6,512.9z"/>
		<path class="st7" d="M732.7,535.9c0,0-143.1-19.2-141.4-29.4c0,0,109.1,9.8,123.9,16.6c14.8,6.8,30.2,12.8,30.2,12.8H732.7z"/>
		<polygon class="st4" points="589,489.8 591.3,506.6 599,507.3 599,490.9 		"/>
		<rect x="560.2" y="430.8" class="st4" width="17.9" height="7.2"/>
		<rect x="559.6" y="496.8" class="st4" width="17.9" height="7.2"/>
		<rect x="551.3" y="438" class="st4" width="34.5" height="18.3"/>
		<rect x="551.3" y="478.5" class="st4" width="34.5" height="18.3"/>
		<rect x="548.8" y="456.3" class="st5" width="39.6" height="11.2"/>
		<rect x="548.8" y="467.5" class="st5" width="39.6" height="10.9"/>
		<path class="st5" d="M574.2,423.6l179.8,2.9c5.5,0,0.4,4.3-8.5,4.3c-8.9,0-167.3,0.1-167.3,0.1L574.2,423.6z"/>
		<path class="st5" d="M564,423.6H379.7c-5.1,0-1.3,3.5,8.5,3.6s178.8,3.6,178.8,3.6L564,423.6z"/>
		<path class="st5" d="M326.7,405.2l83.9,3.3c5.7-0.5,3.5,3.5,0,3.3c-3.5-0.3-77.4,0-77.4,0L326.7,405.2z"/>
		<path class="st5" d="M326.7,405.5l-86.9-3.3c-2.9,0-1.7,3.1,1,3.3c2.6,0.2,84.1,5.6,84.1,5.6L326.7,405.5z"/>
		<path class="st5" d="M324.3,471.3l83.9,0.7c5.7,0.8,3.7-3.4,0.2-3.3c-3.5,0.1-77.3-3.7-77.3-3.7L324.3,471.3z"/>
		<path class="st5" d="M323.5,470.8l-87-0.8c-2.9-0.1-1.5-3.2,1.1-3.3c2.6-0.1,84.3-1.6,84.3-1.6L323.5,470.8z"/>
		<path class="st5" d="M917,427l83.9,3.3c5.7-0.5,3.5,3.5,0,3.3c-3.5-0.3-77.4,0-77.4,0L917,427z"/>
		<path class="st5" d="M917,427.3l-86.9-3.3c-2.9,0-1.7,3.1,1,3.3c2.6,0.2,84.1,5.6,84.1,5.6L917,427.3z"/>
		<path class="st5" d="M918.8,492.5l83.9,0.7c5.7,0.8,3.7-3.4,0.2-3.3c-3.5,0.1-77.3-3.7-77.3-3.7L918.8,492.5z"/>
		<path class="st5" d="M918.1,492.1l-87-0.8c-2.9-0.1-1.5-3.2,1.1-3.3s84.3-1.6,84.3-1.6L918.1,492.1z"/>
		<path class="st5" d="M559.6,503.5L407,492.8c-4.7-0.7-3,3.7,4.3,4.5c7.2,0.8,158,14.9,158,14.9L559.6,503.5z"/>
		<path class="st5" d="M569.2,512.2c0,0,156.7,6.2,161.2,6.2s1.8-3.1-4.6-3.1c-6.4,0-148.3-11.8-148.3-11.8L569.2,512.2z"/>
		<rect x="912.2" y="431.7" class="st4" width="13.3" height="5.4"/>
		<path class="st2" d="M577.5,503.5c0,11.9-17.9,11.4-17.9,0L577.5,503.5z"/>
		<path class="st2" d="M560.2,430.9c0-11.9,17.9-11.4,17.9,0L560.2,430.9z"/>
		<path class="st2" d="M912.2,432.8c0-8.8,13.2-8.5,13.2-0.1L912.2,432.8z"/>
		<path class="st2" d="M925,486.1c-0.1,8.9-13.4,8.4-13.3-0.1L925,486.1z"/>
		<path class="st2" d="M320.2,411.3c0.4-8.6,13.3-7.7,12.9,0.5L320.2,411.3z"/>
		<path class="st2" d="M330.8,465.2c-0.4,8.7-13.5,7.7-13.1-0.6L330.8,465.2z"/>
		<path class="st2" d="M610.1,465.8c5.2-3.8,18.4-7,20.4,12.7c1.1,10.6-9.6,20.1-18.7,9.2L610.1,465.8z"/>
		<path class="st4" d="M617.5,467.1l-29.2-5.2v16.5l29.2,11.4C628.4,478.9,617.5,467.1,617.5,467.1z"/>
		<path class="st2" d="M614.5,325.1c60.7-0.4,142.6,50,142.6,88c2.6,10.4-47.3,14-55.2,1.9C693.8,402.9,654.9,347.3,614.5,325.1z"/>
	</g>
	<path class="st5" d="M492.3,786.4h553.4c0,0-21.9-86.3-87.1-43.1c-39.8-164.9-273-130.7-278.2-12.1
		C649.9,649.4,502.1,669.6,492.3,786.4z"/>
	<path class="st5" d="M233.5,290.4h142.5c0,0-5.7-22.2-22.4-11.1c-10.2-42.5-70.3-33.7-71.6-3.1
		C274.1,255.1,236.1,260.3,233.5,290.4z"/>
	<path class="st5" d="M929.2,331.5H1045c0,0-4.6-18.1-18.2-9c-8.3-34.5-57.2-27.4-58.3-2.5C962.2,302.8,931.2,307,929.2,331.5z"/>
</g>
</svg>
