<?xml version="1.0" encoding="utf-8"?>
<!-- Generator: Adobe Illustrator 22.0.1, SVG Export Plug-In . SVG Version: 6.00 Build 0)  -->
<svg version="1.1" xmlns="http://www.w3.org/2000/svg" xmlns:xlink="http://www.w3.org/1999/xlink" x="0px" y="0px"
	 viewBox="0 0 1280 1024" style="enable-background:new 0 0 1280 1024;" xml:space="preserve">
<style type="text/css">
	.st0{fill:#EAF2F4;}
	.st1{fill:#C3E5F4;}
	.st2{fill:#E0EEF4;}
	.st3{fill:#C4E5F3;}
	.st4{fill:#126FB7;}
	.st5{fill:#F0F4F6;}
	.st6{fill:#52C1E9;}
	.st7{fill:#1496D1;}
	.st8{fill:none;stroke:#126FB7;stroke-linecap:round;stroke-linejoin:round;stroke-miterlimit:10;}
	.st9{fill:#EDC600;}
</style>
<g id="Calque_2">
	<rect x="0.5" y="-0.5" class="st0" width="1280" height="1025"/>
</g>
<g id="Calque_1">
	<g>
		<g>
			<path class="st1" d="M889.9,440.8c-0.3,13.2-2,27-23.2,40.5c-26.6,16.9-284.2,165.3-284.2,165.3s-37.9,23.7-73.8,3.9
				c-39.9-18-107.3-62.6-107.3-62.6c-13.8-12.7-7.4-39.7,3.7-47c10.6-6.9,300.7-174.7,300.7-174.7c14.9-9.1,49.4-13.4,66.2-5.2
				c0,0,76.4,36.9,107.5,62.1C887.9,430.1,889.9,440.8,889.9,440.8z"/>
			<path class="st2" d="M869.8,420.4c15.5,10.5,22,24.3,0,39.3c-22,15.1-299.8,170.9-299.8,170.9c-10.9,5.4-35.4,14.2-57.2,3.9
				c-21.8-10.3-106-63.9-106-63.9c-8.3-10.1-6.9-22.3,17.6-36.3s283-164.9,283-164.9c17.6-10.2,50.5-10.1,60.6-5.8
				C778.2,368,869.8,420.4,869.8,420.4z"/>
			<polygon class="st3" points="429,541.1 567.8,622.1 857.6,454.2 719.2,374.5 			"/>
			<ellipse class="st4" cx="806.3" cy="392.4" rx="5.1" ry="2.2"/>
			<ellipse class="st1" cx="475.8" cy="588" rx="16.9" ry="10.8"/>
			<ellipse class="st2" cx="475.8" cy="588" rx="15.2" ry="9.7"/>
		</g>
		<polygon class="st5" points="586.8,564.3 650.1,527.7 671.1,540.8 628.9,565.6 631.9,567.6 675,542.9 687.3,550.3 570.1,618 
			435,539.9 482.7,512.4 		"/>
		<polygon class="st5" points="654.4,525.5 675.3,538.8 739.6,500.9 717.4,488.2 		"/>
		<polygon class="st5" points="679.2,540.5 743.6,503.2 756.1,510.2 690.9,547.7 		"/>
		<polygon class="st5" points="724.6,484.3 816.2,432.1 853.5,454 763,507 		"/>
		<polygon class="st5" points="719.2,376.4 778.1,410.6 746.8,433.6 708.6,410.6 715.8,419.9 743.4,435.6 690.3,465.3 633.5,430.4 
			645.2,418.8 		"/>
		<polygon class="st5" points="694.6,467.3 716.8,481.3 769.7,451 746.5,438.2 		"/>
		<polygon class="st5" points="750.4,435.3 757.9,440.8 757.9,430.4 		"/>
		<polygon class="st5" points="688.4,471.2 710.6,483.9 586.1,556.8 568.2,536.5 		"/>
		<polygon class="st5" points="672.7,462.4 684.8,469.4 670.1,478.1 		"/>
		<g>
			<polygon class="st4" points="628.8,432.6 650.9,444.8 650.9,511.3 628.8,498.5 			"/>
			<polygon class="st1" points="650.9,444.8 673.3,432.6 673.3,498.5 650.9,511.3 			"/>
			<polygon class="st3" points="628.8,432.6 650.9,419.4 673.3,432.6 650.9,444.8 			"/>
			<polygon class="st6" points="630.5,432.6 650.7,420.4 671.1,432.6 650.7,443.8 			"/>
		</g>
		<g>
			<polygon class="st4" points="518.6,378.6 543,392.4 543,467.9 518.6,453.4 			"/>
			<polygon class="st1" points="543,392.4 567.7,378.6 567.7,453.4 543,467.9 			"/>
			<polygon class="st3" points="518.6,378.6 543,363.6 567.7,378.6 543,392.4 			"/>
			<polygon class="st6" points="520.5,378.6 542.8,364.7 565.3,378.6 542.8,391.3 			"/>
		</g>
		<g>
			<polygon class="st3" points="547.6,413.4 596.6,385.6 644.3,413.4 626,423.5 613.6,417 601.5,423.5 613.9,430.4 595.9,440.8 			
				"/>
			<polygon class="st6" points="550.1,413.4 596.5,387.1 641.8,413.4 625.9,422.2 613.7,415.7 599.4,423.4 611.8,430.2 595.9,439.4 
							"/>
			<polygon class="st7" points="613.6,417 613.6,518.9 626.1,525.5 626,423.5 			"/>
			<polygon class="st4" points="613.6,417 601.5,423.5 613.9,430.4 			"/>
			<polygon class="st4" points="547.6,413.4 595.9,440.8 595.9,542.9 547.6,514 			"/>
			<polygon class="st1" points="626,423.5 644.3,413.4 644.3,515.5 626.1,525.5 			"/>
			<polygon class="st1" points="613.9,430.4 595.9,440.8 595.9,542.9 613.9,533.1 			"/>
		</g>
		<g>
			<polygon class="st3" points="755.2,398.4 788,380.2 820.2,398.6 788,417.5 775.6,410.6 783.7,405.4 775.9,401.1 768.1,405.5 			
				"/>
			<polygon class="st6" points="757.9,398.2 787.7,381.5 817.4,398.6 788,415.8 778.1,410.6 786.7,405.1 775.9,399.3 768.1,404 			
				"/>
			<polygon class="st4" points="788,417.5 787.7,486.6 820.2,467.7 820.2,398.6 			"/>
			<polygon class="st4" points="768.1,405.5 775.9,401.1 783.7,405.4 775.6,410.6 775.9,470.4 768.1,475.2 			"/>
			<polygon class="st1" points="755.2,398.4 768.1,405.5 768.1,475.2 755.2,467.9 			"/>
			<polygon class="st1" points="775.6,410.6 788,417.5 787.7,486.6 775.6,480 			"/>
		</g>
		<g>
			<polygon class="st4" points="682.6,382.4 699.1,391.7 699.1,442.6 682.6,432.8 			"/>
			<polygon class="st1" points="699.1,391.7 715.8,382.4 715.8,432.8 699.1,442.6 			"/>
			<polygon class="st3" points="682.6,382.4 699.1,372.2 715.8,382.4 699.1,391.7 			"/>
			<polygon class="st6" points="684,382.3 699,373 714.2,382.3 699,390.9 			"/>
		</g>
		<g>
			<polygon class="st7" points="468.9,420.4 468.9,537.1 482.7,545.1 482.7,428.4 			"/>
			<polygon class="st7" points="512.8,446.1 512.8,562.1 527.6,570.6 527.6,454.1 			"/>
			<path class="st1" d="M482.7,428.4c0,9.8,7.5,17.1,30.1,17.6v116.1c-8.2,2.1-30.1-1.1-30.1-17V428.4z"/>
			<polygon class="st4" points="527.6,454.1 570.1,428.4 567.6,545.1 527.6,570.6 			"/>
			<path class="st6" d="M468.9,420.4l46.3-23l54.9,31l-42.5,25.6l-14.8-8c0,0-30.1,1.5-30.1-17.6L468.9,420.4z"/>
			<polygon class="st4" points="515.1,402.4 475.4,421.9 473.1,420.6 515.3,399.6 566.7,428.4 564.1,430.1 			"/>
			<path class="st1" d="M475.4,421.9l9.6,5.5c1,10.2,7,16.1,28.6,16.8l14,7.7l36.5-21.8l-49-27.7L475.4,421.9z"/>
		</g>
		<g>
			<polygon class="st1" points="532.3,457.6 538.4,454.1 538.4,461.7 532.3,465.1 			"/>
			<polygon class="st1" points="532.3,468.5 538.4,465 538.4,472.6 532.3,476 			"/>
			<polygon class="st1" points="532.3,479.4 538.4,476 538.4,483.5 532.3,486.9 			"/>
			<polygon class="st1" points="532.3,490.3 538.4,486.9 538.4,494.4 532.3,497.8 			"/>
			<polygon class="st1" points="532.3,500.4 538.4,497 538.4,504.5 532.3,508 			"/>
			<polygon class="st1" points="532.3,510.7 538.4,507.3 538.4,514.8 532.3,518.3 			"/>
			<polygon class="st1" points="532.3,521.5 538.4,518.1 538.4,525.6 532.3,529 			"/>
			<polygon class="st1" points="532.3,532.3 538.4,528.9 538.4,536.4 532.3,539.8 			"/>
			<polygon class="st1" points="532.3,542.6 538.4,539.2 538.4,546.7 532.3,550.1 			"/>
			<polygon class="st1" points="532.3,553.2 538.4,549.7 538.4,557.2 532.3,560.7 			"/>
		</g>
		<g>
			<polygon class="st1" points="541.4,452.7 547.6,449.2 547.6,456.7 541.4,460.2 			"/>
			<polygon class="st1" points="541.4,463.6 547.6,460.1 547.6,467.6 541.4,471.1 			"/>
			<polygon class="st1" points="541.4,474.5 547.6,471 547.6,478.5 541.4,482 			"/>
			<polygon class="st1" points="541.4,485.4 547.6,482 547.6,489.5 541.4,492.9 			"/>
			<polygon class="st1" points="541.4,495.5 547.6,492.1 547.6,499.6 541.4,503 			"/>
			<polygon class="st1" points="541.4,505.8 547.6,502.4 547.6,509.9 541.4,513.3 			"/>
			<polygon class="st1" points="541.4,516.6 547.6,513.2 547.6,520.7 541.4,524.1 			"/>
			<polygon class="st1" points="541.4,527.4 547.6,523.9 547.6,531.5 541.4,534.9 			"/>
			<polygon class="st1" points="541.4,537.7 547.6,534.2 547.6,541.8 541.4,545.2 			"/>
			<polygon class="st1" points="541.4,548.2 547.6,544.8 547.6,552.3 541.4,555.8 			"/>
		</g>
		<g>
			<polygon class="st5" points="602.1,441.3 607.7,438.2 607.7,445 602.1,448.1 			"/>
			<polygon class="st5" points="602.1,451.2 607.7,448.1 607.7,454.9 602.1,458 			"/>
			<polygon class="st5" points="602.1,461.1 607.7,458 607.7,464.8 602.1,467.9 			"/>
			<polygon class="st5" points="602.1,471 607.7,467.9 607.7,474.7 602.1,477.8 			"/>
			<polygon class="st5" points="602.1,480.2 607.7,477.1 607.7,483.9 602.1,487 			"/>
			<polygon class="st5" points="602.1,489.6 607.7,486.4 607.7,493.3 602.1,496.4 			"/>
			<polygon class="st5" points="602.1,499.3 607.7,496.2 607.7,503.1 602.1,506.2 			"/>
			<polygon class="st5" points="602.1,509.1 607.7,506 607.7,512.8 602.1,515.9 			"/>
			<polygon class="st5" points="602.1,518.5 607.7,515.4 607.7,522.2 602.1,525.3 			"/>
			<polygon class="st5" points="602.1,528.1 607.7,525 607.7,531.8 602.1,534.9 			"/>
		</g>
		<g>
			<polygon class="st5" points="633.3,424.2 638.9,421.1 638.9,427.9 633.3,431 			"/>
			<polygon class="st5" points="633.3,434.1 638.9,431 638.9,437.8 633.3,440.9 			"/>
			<polygon class="st5" points="633.3,444 638.9,440.8 638.9,447.7 633.3,450.8 			"/>
			<polygon class="st5" points="633.3,453.9 638.9,450.8 638.9,457.6 633.3,460.7 			"/>
			<polygon class="st5" points="633.3,463.1 638.9,460 638.9,466.8 633.3,469.9 			"/>
			<polygon class="st5" points="633.3,472.4 638.9,469.3 638.9,476.1 633.3,479.2 			"/>
			<polygon class="st5" points="633.3,482.2 638.9,479.1 638.9,485.9 633.3,489 			"/>
			<polygon class="st5" points="633.3,492 638.9,488.9 638.9,495.7 633.3,498.8 			"/>
			<polygon class="st5" points="633.3,501.3 638.9,498.2 638.9,505 633.3,508.2 			"/>
			<polygon class="st5" points="633.3,510.9 638.9,507.8 638.9,514.6 633.3,517.8 			"/>
		</g>
		<g>
			<polygon class="st1" points="552.4,446.6 558.5,443.2 558.5,450.7 552.4,454.1 			"/>
			<polygon class="st1" points="552.4,457.5 558.5,454.1 558.5,461.6 552.4,465 			"/>
			<polygon class="st1" points="552.4,468.4 558.5,465 558.5,472.5 552.4,476 			"/>
			<polygon class="st1" points="552.4,479.4 558.5,476 558.5,483.5 552.4,486.9 			"/>
			<polygon class="st1" points="552.4,489.5 558.5,486.1 558.5,493.6 552.4,497 			"/>
			<polygon class="st1" points="552.4,499.8 558.5,496.4 558.5,503.9 552.4,507.3 			"/>
			<polygon class="st1" points="552.4,510.6 558.5,507.1 558.5,514.7 552.4,518.1 			"/>
			<polygon class="st1" points="552.4,521.4 558.5,517.9 558.5,525.4 552.4,528.9 			"/>
			<polygon class="st1" points="552.4,531.6 558.5,528.2 558.5,535.7 552.4,539.2 			"/>
			<polygon class="st1" points="552.4,542.2 558.5,538.8 558.5,546.3 552.4,549.7 			"/>
		</g>
		<g>
			<polygon class="st1" points="561.5,441.7 567.7,438.3 567.7,445.8 561.5,449.2 			"/>
			<polygon class="st1" points="561.5,452.6 567.7,449.2 567.7,456.7 561.5,460.1 			"/>
			<polygon class="st1" points="561.5,463.5 567.7,460.1 567.7,467.6 561.5,471 			"/>
			<polygon class="st1" points="561.5,474.5 567.7,471 567.7,478.5 561.5,482 			"/>
			<polygon class="st1" points="561.5,484.6 567.7,481.2 567.7,488.7 561.5,492.1 			"/>
			<polygon class="st1" points="561.5,494.9 567.7,491.4 567.7,499 561.5,502.4 			"/>
			<polygon class="st1" points="561.5,505.7 567.7,502.2 567.7,509.7 561.5,513.2 			"/>
			<polygon class="st1" points="561.5,516.4 567.7,513 567.7,520.5 561.5,523.9 			"/>
			<polygon class="st1" points="561.5,526.7 567.7,523.3 567.7,530.8 561.5,534.2 			"/>
			<polygon class="st1" points="561.5,537.3 567.7,533.9 567.7,541.4 561.5,544.8 			"/>
		</g>
		<g>
			<polygon class="st1" points="795,416.8 798.7,414.7 798.7,419.2 795,421.2 			"/>
			<polygon class="st1" points="795,423.3 798.7,421.2 798.7,425.7 795,427.8 			"/>
			<polygon class="st1" points="795,429.8 798.7,427.7 798.7,432.2 795,434.3 			"/>
			<polygon class="st1" points="795,436.3 798.7,434.3 798.7,438.8 795,440.8 			"/>
			<polygon class="st1" points="795,442.4 798.7,440.3 798.7,444.8 795,446.9 			"/>
			<polygon class="st1" points="795,448.5 798.7,446.5 798.7,451 795,453 			"/>
			<polygon class="st1" points="795,455 798.7,452.9 798.7,457.4 795,459.5 			"/>
			<polygon class="st1" points="795,461.4 798.7,459.4 798.7,463.8 795,465.9 			"/>
			<polygon class="st1" points="795,467.6 798.7,465.5 798.7,470 795,472 			"/>
			<polygon class="st1" points="795,473.9 798.7,471.8 798.7,476.3 795,478.4 			"/>
		</g>
		<g>
			<polygon class="st1" points="800.5,413.8 804.2,411.8 804.2,416.3 800.5,418.3 			"/>
			<polygon class="st1" points="800.5,420.3 804.2,418.3 804.2,422.8 800.5,424.8 			"/>
			<polygon class="st1" points="800.5,426.8 804.2,424.8 804.2,429.3 800.5,431.3 			"/>
			<polygon class="st1" points="800.5,433.4 804.2,431.3 804.2,435.8 800.5,437.9 			"/>
			<polygon class="st1" points="800.5,439.4 804.2,437.4 804.2,441.9 800.5,443.9 			"/>
			<polygon class="st1" points="800.5,445.6 804.2,443.5 804.2,448 800.5,450.1 			"/>
			<polygon class="st1" points="800.5,452 804.2,450 804.2,454.5 800.5,456.5 			"/>
			<polygon class="st1" points="800.5,458.5 804.2,456.4 804.2,460.9 800.5,463 			"/>
			<polygon class="st1" points="800.5,464.6 804.2,462.6 804.2,467.1 800.5,469.1 			"/>
			<polygon class="st1" points="800.5,470.9 804.2,468.9 804.2,473.4 800.5,475.4 			"/>
		</g>
		<g>
			<polygon class="st1" points="807,410.2 810.7,408.2 810.7,412.7 807,414.7 			"/>
			<polygon class="st1" points="807,416.7 810.7,414.7 810.7,419.2 807,421.2 			"/>
			<polygon class="st1" points="807,423.2 810.7,421.2 810.7,425.7 807,427.7 			"/>
			<polygon class="st1" points="807,429.8 810.7,427.7 810.7,432.2 807,434.3 			"/>
			<polygon class="st1" points="807,435.8 810.7,433.8 810.7,438.3 807,440.3 			"/>
			<polygon class="st1" points="807,442 810.7,439.9 810.7,444.4 807,446.5 			"/>
			<polygon class="st1" points="807,448.4 810.7,446.4 810.7,450.9 807,452.9 			"/>
			<polygon class="st1" points="807,454.9 810.7,452.8 810.7,457.3 807,459.4 			"/>
			<polygon class="st1" points="807,461 810.7,459 810.7,463.5 807,465.5 			"/>
			<polygon class="st1" points="807,467.3 810.7,465.3 810.7,469.8 807,471.8 			"/>
		</g>
		<g>
			<polygon class="st1" points="812.5,407.3 816.2,405.2 816.2,409.7 812.5,411.8 			"/>
			<polygon class="st1" points="812.5,413.8 816.2,411.7 816.2,416.2 812.5,418.3 			"/>
			<polygon class="st1" points="812.5,420.3 816.2,418.3 816.2,422.7 812.5,424.8 			"/>
			<polygon class="st1" points="812.5,426.8 816.2,424.8 816.2,429.3 812.5,431.3 			"/>
			<polygon class="st1" points="812.5,432.9 816.2,430.8 816.2,435.3 812.5,437.4 			"/>
			<polygon class="st1" points="812.5,439 816.2,437 816.2,441.5 812.5,443.5 			"/>
			<polygon class="st1" points="812.5,445.5 816.2,443.4 816.2,447.9 812.5,450 			"/>
			<polygon class="st1" points="812.5,451.9 816.2,449.9 816.2,454.4 812.5,456.4 			"/>
			<polygon class="st1" points="812.5,458.1 816.2,456 816.2,460.5 812.5,462.6 			"/>
			<polygon class="st1" points="812.5,464.4 816.2,462.3 816.2,466.8 812.5,468.9 			"/>
		</g>
		<g>
			<polygon class="st3" points="542.7,532.4 565.8,519.6 588.5,532.5 565.8,545.9 557,541 562.8,537.3 557.3,534.3 551.7,537.4 			
				"/>
			<polygon class="st6" points="544.6,532.3 565.6,520.4 586.6,532.5 565.8,544.6 558.9,541 564.9,537.1 557.3,533.1 551.7,536.3 
							"/>
			<polygon class="st4" points="565.8,545.9 565.6,594.7 588.5,581.3 588.5,532.5 			"/>
			<polygon class="st4" points="551.7,537.4 557.3,534.3 562.8,537.3 557,541 557.3,583.2 551.7,586.6 			"/>
			<polygon class="st1" points="542.7,532.4 551.7,537.4 551.7,586.6 542.7,581.5 			"/>
			<polygon class="st1" points="557,541 565.8,545.9 565.6,594.7 557,590 			"/>
		</g>
		<g>
			<circle class="st7" cx="718.3" cy="450.7" r="7.5"/>
			<polyline class="st8" points="718.3,464.3 718.3,452.4 716.3,450.1 			"/>
			<line class="st8" x1="718.3" y1="452.3" x2="720.6" y2="449.2"/>
		</g>
		<g>
			<circle class="st7" cx="690.9" cy="500.2" r="7.5"/>
			<polyline class="st8" points="690.9,513.7 690.9,501.9 688.8,499.6 			"/>
			<line class="st8" x1="690.9" y1="501.8" x2="693.1" y2="498.7"/>
		</g>
		<g>
			<circle class="st7" cx="607.7" cy="567.6" r="7.5"/>
			<polyline class="st8" points="607.7,581.1 607.7,569.3 605.6,566.9 			"/>
			<line class="st8" x1="607.7" y1="569.1" x2="609.9" y2="566"/>
		</g>
		<g>
			<path class="st1" d="M734.8,367.5c0,0-13.2,29.2,0,29.2C747.2,396.7,734.8,367.5,734.8,367.5z"/>
			<polyline class="st8" points="734.6,402.7 734.6,387.4 732.6,384.3 			"/>
			<line class="st8" x1="734.6" y1="392.8" x2="736.9" y2="389.7"/>
			<line class="st8" x1="734.6" y1="387.4" x2="736.9" y2="384.3"/>
		</g>
		<g>
			<path class="st1" d="M742.8,450.9c0,0-13.2,29.2,0,29.2C755.2,480.1,742.8,450.9,742.8,450.9z"/>
			<polyline class="st8" points="742.6,486.2 742.6,470.8 740.6,467.8 			"/>
			<line class="st8" x1="742.6" y1="476.2" x2="744.9" y2="473.2"/>
			<line class="st8" x1="742.6" y1="470.8" x2="744.9" y2="467.8"/>
		</g>
		<g>
			<path class="st1" d="M523.1,551.5c0,0-11.6,25.7,0,25.7C534,577.1,523.1,551.5,523.1,551.5z"/>
			<polyline class="st8" points="523,582.4 523,568.9 521.2,566.2 			"/>
			<line class="st8" x1="523" y1="573.7" x2="524.9" y2="571"/>
			<line class="st8" x1="523" y1="568.9" x2="524.9" y2="566.2"/>
		</g>
	</g>
</g>
<g id="Calque_3">
	<circle class="st9" cx="635.8" cy="274.6" r="8.8"/>
</g>
</svg>
